<svg width="1744" height="992" viewBox="0 0 1744 992" fill="none" xmlns="http://www.w3.org/2000/svg">
<path d="M0 12C0 5.37257 5.37258 0 12 0H1732C1738.63 0 1744 5.37258 1744 12V980C1744 986.627 1738.63 992 1732 992H12C5.37263 992 0 986.627 0 980V12Z" fill="black" fill-opacity="0.0980392"/>
<path d="M1184 184H1744V980C1744 986.627 1738.63 992 1732 992H1184V184Z" fill="white"/>
<path d="M1184 184H1744H1184ZM1745 980C1745 987.18 1739.18 993 1732 993H1184V991H1732C1738.08 991 1743 986.075 1743 980H1745ZM1184 992V184V992ZM1745 184V980C1745 987.18 1739.18 993 1732 993V991C1738.08 991 1743 986.075 1743 980V184H1745Z" fill="black" fill-opacity="0.2"/>
<path d="M1184 0H1732C1738.63 0 1744 5.37258 1744 12V184H1184V0Z" fill="white"/>
<path d="M1423.1 79.8864H1412.46C1412.05 77.6136 1411.29 75.6136 1410.18 73.8864C1409.06 72.1591 1407.7 70.6932 1406.08 69.4886C1404.47 68.2841 1402.66 67.375 1400.66 66.7614C1398.69 66.1477 1396.58 65.8409 1394.36 65.8409C1390.33 65.8409 1386.73 66.8523 1383.55 68.875C1380.39 70.8977 1377.89 73.8636 1376.05 77.7727C1374.23 81.6818 1373.32 86.4545 1373.32 92.0909C1373.32 97.7727 1374.23 102.568 1376.05 106.477C1377.89 110.386 1380.4 113.341 1383.58 115.341C1386.77 117.341 1390.35 118.341 1394.32 118.341C1396.53 118.341 1398.62 118.045 1400.6 117.455C1402.6 116.841 1404.4 115.943 1406.02 114.761C1407.63 113.58 1408.99 112.136 1410.11 110.432C1411.24 108.705 1412.03 106.727 1412.46 104.5L1423.1 104.534C1422.53 107.966 1421.43 111.125 1419.79 114.011C1418.18 116.875 1416.1 119.352 1413.55 121.443C1411.03 123.511 1408.14 125.114 1404.89 126.25C1401.64 127.386 1398.1 127.955 1394.26 127.955C1388.21 127.955 1382.82 126.523 1378.1 123.659C1373.37 120.773 1369.64 116.648 1366.91 111.284C1364.21 105.92 1362.86 99.5227 1362.86 92.0909C1362.86 84.6364 1364.22 78.2386 1366.95 72.8977C1369.68 67.5341 1373.4 63.4205 1378.13 60.5568C1382.86 57.6705 1388.23 56.2273 1394.26 56.2273C1397.96 56.2273 1401.41 56.7614 1404.62 57.8295C1407.85 58.875 1410.74 60.4205 1413.31 62.4659C1415.88 64.4886 1418.01 66.9659 1419.69 69.8977C1421.37 72.8068 1422.51 76.1364 1423.1 79.8864ZM1454.73 128.057C1449.82 128.057 1445.54 126.932 1441.88 124.682C1438.22 122.432 1435.38 119.284 1433.36 115.239C1431.33 111.193 1430.32 106.466 1430.32 101.057C1430.32 95.625 1431.33 90.875 1433.36 86.8068C1435.38 82.7386 1438.22 79.5795 1441.88 77.3295C1445.54 75.0795 1449.82 73.9545 1454.73 73.9545C1459.64 73.9545 1463.93 75.0795 1467.58 77.3295C1471.24 79.5795 1474.08 82.7386 1476.11 86.8068C1478.13 90.875 1479.14 95.625 1479.14 101.057C1479.14 106.466 1478.13 111.193 1476.11 115.239C1474.08 119.284 1471.24 122.432 1467.58 124.682C1463.93 126.932 1459.64 128.057 1454.73 128.057ZM1454.77 119.5C1457.95 119.5 1460.58 118.659 1462.68 116.977C1464.77 115.295 1466.31 113.057 1467.31 110.261C1468.33 107.466 1468.85 104.386 1468.85 101.023C1468.85 97.6818 1468.33 94.6136 1467.31 91.8182C1466.31 89 1464.77 86.7386 1462.68 85.0341C1460.58 83.3295 1457.95 82.4773 1454.77 82.4773C1451.56 82.4773 1448.9 83.3295 1446.79 85.0341C1444.7 86.7386 1443.14 89 1442.12 91.8182C1441.12 94.6136 1440.62 97.6818 1440.62 101.023C1440.62 104.386 1441.12 107.466 1442.12 110.261C1443.14 113.057 1444.7 115.295 1446.79 116.977C1448.9 118.659 1451.56 119.5 1454.77 119.5ZM1488.31 127V74.6364H1498.16V82.9545H1498.71C1499.66 80.1364 1501.34 77.9205 1503.75 76.3068C1506.19 74.6705 1508.94 73.8523 1512 73.8523C1512.64 73.8523 1513.39 73.875 1514.25 73.9205C1515.14 73.9659 1515.83 74.0227 1516.33 74.0909V83.8409C1515.92 83.7273 1515.2 83.6023 1514.15 83.4659C1513.11 83.3068 1512.06 83.2273 1511.02 83.2273C1508.61 83.2273 1506.46 83.7386 1504.57 84.7614C1502.71 85.7614 1501.23 87.1591 1500.14 88.9545C1499.05 90.7273 1498.5 92.75 1498.5 95.0227V127H1488.31ZM1543.64 128.057C1538.48 128.057 1534.04 126.955 1530.31 124.75C1526.61 122.523 1523.74 119.398 1521.72 115.375C1519.72 111.33 1518.72 106.591 1518.72 101.159C1518.72 95.7955 1519.72 91.0682 1521.72 86.9773C1523.74 82.8864 1526.56 79.6932 1530.17 77.3977C1533.81 75.1023 1538.06 73.9545 1542.92 73.9545C1545.88 73.9545 1548.74 74.4432 1551.51 75.4205C1554.29 76.3977 1556.78 77.9318 1558.98 80.0227C1561.19 82.1136 1562.92 84.8295 1564.2 88.1705C1565.47 91.4886 1566.11 95.5227 1566.11 100.273V103.886H1524.48V96.25H1556.12C1556.12 93.5682 1555.57 91.1932 1554.48 89.125C1553.39 87.0341 1551.86 85.3864 1549.88 84.1818C1547.92 82.9773 1545.63 82.375 1542.99 82.375C1540.13 82.375 1537.63 83.0795 1535.49 84.4886C1533.38 85.875 1531.74 87.6932 1530.58 89.9432C1529.45 92.1705 1528.88 94.5909 1528.88 97.2045V103.17C1528.88 106.67 1529.49 109.648 1530.72 112.102C1531.97 114.557 1533.71 116.432 1535.94 117.727C1538.16 119 1540.76 119.636 1543.74 119.636C1545.67 119.636 1547.44 119.364 1549.03 118.818C1550.62 118.25 1551.99 117.409 1553.15 116.295C1554.31 115.182 1555.2 113.807 1555.81 112.17L1565.46 113.909C1564.69 116.75 1563.3 119.239 1561.3 121.375C1559.32 123.489 1556.83 125.136 1553.83 126.318C1550.86 127.477 1547.46 128.057 1543.64 128.057Z" fill="black" fill-opacity="0.8"/>
<path d="M1184 -1H1732C1739.18 -1 1745 4.8203 1745 12H1743C1743 5.92487 1738.08 1 1732 1H1184V-1ZM1745 185H1184V183H1743L1745 185ZM1184 184V0V184ZM1732 -1C1739.18 -1 1745 4.8203 1745 12V185L1743 183V12C1743 5.92487 1738.08 1 1732 1V-1Z" fill="black" fill-opacity="0.2"/>
<path d="M0 184H592V992H12C5.37259 992 0 986.627 0 980V184Z" fill="white"/>
<path d="M0 184H592H0ZM593 993H12C4.8203 993 -1 987.18 -1 980H1C1 986.075 5.92487 991 12 991H591L593 993ZM12 993C4.8203 993 -1 987.18 -1 980V184H1V980C1 986.075 5.92487 991 12 991V993ZM593 184V993L591 991V184H593Z" fill="black" fill-opacity="0.2"/>
<path d="M592 0H1184V184H592V0Z" fill="white"/>
<path d="M687.983 75.5227C687.619 72.2955 686.119 69.7955 683.483 68.0227C680.847 66.2273 677.528 65.3295 673.528 65.3295C670.665 65.3295 668.187 65.7841 666.097 66.6932C664.006 67.5795 662.381 68.8068 661.222 70.375C660.085 71.9205 659.517 73.6818 659.517 75.6591C659.517 77.3182 659.903 78.75 660.676 79.9545C661.472 81.1591 662.506 82.1705 663.778 82.9886C665.074 83.7841 666.46 84.4545 667.937 85C669.415 85.5227 670.835 85.9545 672.199 86.2955L679.017 88.0682C681.244 88.6136 683.528 89.3523 685.869 90.2841C688.21 91.2159 690.381 92.4432 692.381 93.9659C694.381 95.4886 695.994 97.375 697.222 99.625C698.472 101.875 699.097 104.568 699.097 107.705C699.097 111.659 698.074 115.17 696.028 118.239C694.006 121.307 691.062 123.727 687.199 125.5C683.358 127.273 678.71 128.159 673.256 128.159C668.028 128.159 663.506 127.33 659.687 125.67C655.869 124.011 652.881 121.659 650.722 118.614C648.562 115.545 647.369 111.909 647.142 107.705H657.71C657.915 110.227 658.733 112.33 660.165 114.011C661.619 115.67 663.472 116.909 665.722 117.727C667.994 118.523 670.483 118.92 673.187 118.92C676.165 118.92 678.812 118.455 681.131 117.523C683.472 116.568 685.312 115.25 686.653 113.568C687.994 111.864 688.665 109.875 688.665 107.602C688.665 105.534 688.074 103.841 686.892 102.523C685.733 101.205 684.153 100.114 682.153 99.25C680.176 98.3864 677.937 97.625 675.437 96.9659L667.187 94.7159C661.597 93.1932 657.165 90.9545 653.892 88C650.642 85.0455 649.017 81.1364 649.017 76.2727C649.017 72.25 650.108 68.7386 652.29 65.7386C654.472 62.7386 657.426 60.4091 661.153 58.75C664.881 57.0682 669.085 56.2273 673.767 56.2273C678.494 56.2273 682.665 57.0568 686.278 58.7159C689.915 60.375 692.778 62.6591 694.869 65.5682C696.96 68.4545 698.051 71.7727 698.142 75.5227H687.983ZM741.829 105.284V74.6364H752.056V127H742.033V117.932H741.488C740.283 120.727 738.352 123.057 735.692 124.92C733.056 126.761 729.772 127.682 725.84 127.682C722.477 127.682 719.499 126.943 716.908 125.466C714.34 123.966 712.317 121.75 710.84 118.818C709.386 115.886 708.658 112.261 708.658 107.943V74.6364H718.852V106.716C718.852 110.284 719.84 113.125 721.817 115.239C723.795 117.352 726.363 118.409 729.522 118.409C731.431 118.409 733.329 117.932 735.215 116.977C737.124 116.023 738.704 114.58 739.954 112.648C741.227 110.716 741.852 108.261 741.829 105.284ZM763.544 146.636V74.6364H773.499V83.125H774.351C774.942 82.0341 775.794 80.7727 776.908 79.3409C778.021 77.9091 779.567 76.6591 781.544 75.5909C783.521 74.5 786.135 73.9545 789.385 73.9545C793.612 73.9545 797.385 75.0227 800.703 77.1591C804.021 79.2955 806.624 82.375 808.51 86.3977C810.419 90.4205 811.374 95.2614 811.374 100.92C811.374 106.58 810.431 111.432 808.544 115.477C806.658 119.5 804.067 122.602 800.771 124.784C797.476 126.943 793.715 128.023 789.487 128.023C786.306 128.023 783.703 127.489 781.681 126.42C779.681 125.352 778.112 124.102 776.976 122.67C775.84 121.239 774.965 119.966 774.351 118.852H773.737V146.636H763.544ZM773.533 100.818C773.533 104.5 774.067 107.727 775.135 110.5C776.203 113.273 777.749 115.443 779.771 117.011C781.794 118.557 784.271 119.33 787.203 119.33C790.249 119.33 792.794 118.523 794.84 116.909C796.885 115.273 798.431 113.057 799.476 110.261C800.544 107.466 801.078 104.318 801.078 100.818C801.078 97.3636 800.556 94.2614 799.51 91.5114C798.487 88.7614 796.942 86.5909 794.874 85C792.828 83.4091 790.271 82.6136 787.203 82.6136C784.249 82.6136 781.749 83.375 779.703 84.8977C777.681 86.4205 776.146 88.5455 775.101 91.2727C774.056 94 773.533 97.1818 773.533 100.818ZM820.586 146.636V74.6364H830.541V83.125H831.393C831.984 82.0341 832.836 80.7727 833.95 79.3409C835.063 77.9091 836.609 76.6591 838.586 75.5909C840.563 74.5 843.177 73.9545 846.427 73.9545C850.654 73.9545 854.427 75.0227 857.745 77.1591C861.063 79.2955 863.666 82.375 865.552 86.3977C867.461 90.4205 868.416 95.2614 868.416 100.92C868.416 106.58 867.473 111.432 865.586 115.477C863.7 119.5 861.109 122.602 857.813 124.784C854.518 126.943 850.757 128.023 846.529 128.023C843.348 128.023 840.745 127.489 838.723 126.42C836.723 125.352 835.154 124.102 834.018 122.67C832.882 121.239 832.007 119.966 831.393 118.852H830.779V146.636H820.586ZM830.575 100.818C830.575 104.5 831.109 107.727 832.177 110.5C833.245 113.273 834.791 115.443 836.813 117.011C838.836 118.557 841.313 119.33 844.245 119.33C847.291 119.33 849.836 118.523 851.882 116.909C853.927 115.273 855.473 113.057 856.518 110.261C857.586 107.466 858.12 104.318 858.12 100.818C858.12 97.3636 857.598 94.2614 856.552 91.5114C855.529 88.7614 853.984 86.5909 851.916 85C849.87 83.4091 847.313 82.6136 844.245 82.6136C841.291 82.6136 838.791 83.375 836.745 84.8977C834.723 86.4205 833.188 88.5455 832.143 91.2727C831.098 94 830.575 97.1818 830.575 100.818ZM899.685 128.057C894.776 128.057 890.492 126.932 886.833 124.682C883.174 122.432 880.333 119.284 878.31 115.239C876.287 111.193 875.276 106.466 875.276 101.057C875.276 95.625 876.287 90.875 878.31 86.8068C880.333 82.7386 883.174 79.5795 886.833 77.3295C890.492 75.0795 894.776 73.9545 899.685 73.9545C904.594 73.9545 908.878 75.0795 912.537 77.3295C916.196 79.5795 919.037 82.7386 921.06 86.8068C923.083 90.875 924.094 95.625 924.094 101.057C924.094 106.466 923.083 111.193 921.06 115.239C919.037 119.284 916.196 122.432 912.537 124.682C908.878 126.932 904.594 128.057 899.685 128.057ZM899.719 119.5C902.901 119.5 905.537 118.659 907.628 116.977C909.719 115.295 911.265 113.057 912.265 110.261C913.287 107.466 913.799 104.386 913.799 101.023C913.799 97.6818 913.287 94.6136 912.265 91.8182C911.265 89 909.719 86.7386 907.628 85.0341C905.537 83.3295 902.901 82.4773 899.719 82.4773C896.515 82.4773 893.855 83.3295 891.742 85.0341C889.651 86.7386 888.094 89 887.071 91.8182C886.071 94.6136 885.571 97.6818 885.571 101.023C885.571 104.386 886.071 107.466 887.071 110.261C888.094 113.057 889.651 115.295 891.742 116.977C893.855 118.659 896.515 119.5 899.719 119.5ZM933.264 127V74.6364H943.116V82.9545H943.662C944.616 80.1364 946.298 77.9205 948.707 76.3068C951.139 74.6705 953.889 73.8523 956.957 73.8523C957.593 73.8523 958.343 73.875 959.207 73.9205C960.093 73.9659 960.787 74.0227 961.287 74.0909V83.8409C960.878 83.7273 960.15 83.6023 959.105 83.4659C958.059 83.3068 957.014 83.2273 955.968 83.2273C953.559 83.2273 951.412 83.7386 949.525 84.7614C947.662 85.7614 946.184 87.1591 945.093 88.9545C944.003 90.7273 943.457 92.75 943.457 95.0227V127H933.264ZM995.437 74.6364V82.8182H966.834V74.6364H995.437ZM974.505 62.0909H984.698V111.625C984.698 113.602 984.993 115.091 985.584 116.091C986.175 117.068 986.937 117.739 987.868 118.102C988.823 118.443 989.857 118.614 990.971 118.614C991.789 118.614 992.505 118.557 993.118 118.443C993.732 118.33 994.209 118.239 994.55 118.17L996.391 126.591C995.8 126.818 994.959 127.045 993.868 127.273C992.778 127.523 991.414 127.659 989.778 127.682C987.096 127.727 984.596 127.25 982.278 126.25C979.959 125.25 978.084 123.705 976.653 121.614C975.221 119.523 974.505 116.898 974.505 113.739V62.0909ZM1004.5 127V74.6364H1014.7V127H1004.5ZM1009.65 66.5568C1007.88 66.5568 1006.36 65.9659 1005.08 64.7841C1003.83 63.5795 1003.21 62.1477 1003.21 60.4886C1003.21 58.8068 1003.83 57.375 1005.08 56.1932C1006.36 54.9886 1007.88 54.3864 1009.65 54.3864C1011.42 54.3864 1012.94 54.9886 1014.19 56.1932C1015.46 57.375 1016.1 58.8068 1016.1 60.4886C1016.1 62.1477 1015.46 63.5795 1014.19 64.7841C1012.94 65.9659 1011.42 66.5568 1009.65 66.5568ZM1036.4 95.9091V127H1026.2V74.6364H1035.99V83.1591H1036.63C1037.84 80.3864 1039.73 78.1591 1042.29 76.4773C1044.88 74.7955 1048.15 73.9545 1052.08 73.9545C1055.65 73.9545 1058.77 74.7045 1061.45 76.2045C1064.13 77.6818 1066.21 79.8864 1067.69 82.8182C1069.17 85.75 1069.91 89.375 1069.91 93.6932V127H1059.71V94.9205C1059.71 91.125 1058.73 88.1591 1056.75 86.0227C1054.77 83.8636 1052.05 82.7841 1048.6 82.7841C1046.24 82.7841 1044.13 83.2955 1042.29 84.3182C1040.48 85.3409 1039.03 86.8409 1037.96 88.8182C1036.92 90.7727 1036.4 93.1364 1036.4 95.9091ZM1103.32 147.727C1099.16 147.727 1095.59 147.182 1092.59 146.091C1089.61 145 1087.18 143.557 1085.29 141.761C1083.4 139.966 1081.99 138 1081.06 135.864L1089.82 132.25C1090.44 133.25 1091.26 134.307 1092.28 135.42C1093.32 136.557 1094.73 137.523 1096.51 138.318C1098.3 139.114 1100.61 139.511 1103.43 139.511C1107.29 139.511 1110.48 138.568 1113.01 136.682C1115.53 134.818 1116.79 131.841 1116.79 127.75V117.455H1116.14C1115.53 118.568 1114.64 119.807 1113.48 121.17C1112.35 122.534 1110.78 123.716 1108.78 124.716C1106.78 125.716 1104.18 126.216 1100.97 126.216C1096.84 126.216 1093.11 125.25 1089.79 123.318C1086.49 121.364 1083.88 118.489 1081.95 114.693C1080.04 110.875 1079.09 106.182 1079.09 100.614C1079.09 95.0455 1080.03 90.2727 1081.91 86.2955C1083.82 82.3182 1086.44 79.2727 1089.76 77.1591C1093.07 75.0227 1096.84 73.9545 1101.04 73.9545C1104.29 73.9545 1106.91 74.5 1108.91 75.5909C1110.91 76.6591 1112.47 77.9091 1113.59 79.3409C1114.72 80.7727 1115.6 82.0341 1116.21 83.125H1116.96V74.6364H1126.95V128.159C1126.95 132.659 1125.9 136.352 1123.81 139.239C1121.72 142.125 1118.89 144.261 1115.32 145.648C1111.78 147.034 1107.78 147.727 1103.32 147.727ZM1103.22 117.761C1106.15 117.761 1108.63 117.08 1110.65 115.716C1112.7 114.33 1114.24 112.352 1115.29 109.784C1116.36 107.193 1116.89 104.091 1116.89 100.477C1116.89 96.9545 1116.37 93.8523 1115.32 91.1705C1114.28 88.4886 1112.74 86.3977 1110.72 84.8977C1108.7 83.375 1106.2 82.6136 1103.22 82.6136C1100.15 82.6136 1097.6 83.4091 1095.55 85C1093.51 86.5682 1091.96 88.7045 1090.91 91.4091C1089.89 94.1136 1089.38 97.1364 1089.38 100.477C1089.38 103.909 1089.9 106.92 1090.95 109.511C1091.99 112.102 1093.54 114.125 1095.59 115.58C1097.65 117.034 1100.2 117.761 1103.22 117.761Z" fill="black" fill-opacity="0.8"/>
<path d="M592 -1H1185L1183 1H592V-1ZM1185 185H592V183H1183L1185 185ZM592 184V0V184ZM1185 -1V185L1183 183V1L1185 -1Z" fill="black" fill-opacity="0.2"/>
<path d="M592 184H1184V992H592V184Z" fill="white"/>
<path d="M592 184H1184H592ZM1185 993H592V991H1183L1185 993ZM592 992V184V992ZM1185 184V993L1183 991V184H1185Z" fill="black" fill-opacity="0.2"/>
<path d="M0 12C0 5.37258 5.37258 0 12 0H592V184H0V12Z" fill="white"/>
<path d="M178.951 79.2386C178.292 77.1705 177.405 75.3182 176.292 73.6818C175.201 72.0227 173.894 70.6136 172.371 69.4545C170.848 68.2727 169.11 67.375 167.155 66.7614C165.223 66.1477 163.098 65.8409 160.78 65.8409C156.848 65.8409 153.303 66.8523 150.144 68.875C146.985 70.8977 144.485 73.8636 142.644 77.7727C140.826 81.6591 139.917 86.4205 139.917 92.0568C139.917 97.7159 140.837 102.5 142.678 106.409C144.519 110.318 147.042 113.284 150.246 115.307C153.451 117.33 157.098 118.341 161.189 118.341C164.985 118.341 168.292 117.568 171.11 116.023C173.951 114.477 176.144 112.295 177.689 109.477C179.258 106.636 180.042 103.295 180.042 99.4545L182.769 99.9659H162.792V91.2727H190.235V99.2159C190.235 105.08 188.985 110.17 186.485 114.489C184.008 118.784 180.576 122.102 176.189 124.443C171.826 126.784 166.826 127.955 161.189 127.955C154.871 127.955 149.326 126.5 144.553 123.591C139.803 120.682 136.098 116.557 133.439 111.216C130.78 105.852 129.451 99.4886 129.451 92.125C129.451 86.5568 130.223 81.5568 131.769 77.125C133.314 72.6932 135.485 68.9318 138.28 65.8409C141.098 62.7273 144.405 60.3523 148.201 58.7159C152.019 57.0568 156.189 56.2273 160.712 56.2273C164.485 56.2273 167.996 56.7841 171.246 57.8977C174.519 59.0114 177.428 60.5909 179.973 62.6364C182.542 64.6818 184.667 67.1136 186.348 69.9318C188.03 72.7273 189.167 75.8295 189.758 79.2386H178.951ZM223.149 128.057C217.99 128.057 213.547 126.955 209.819 124.75C206.115 122.523 203.251 119.398 201.228 115.375C199.228 111.33 198.228 106.591 198.228 101.159C198.228 95.7955 199.228 91.0682 201.228 86.9773C203.251 82.8864 206.069 79.6932 209.683 77.3977C213.319 75.1023 217.569 73.9545 222.433 73.9545C225.388 73.9545 228.251 74.4432 231.024 75.4205C233.797 76.3977 236.285 77.9318 238.49 80.0227C240.694 82.1136 242.433 84.8295 243.706 88.1705C244.978 91.4886 245.615 95.5227 245.615 100.273V103.886H203.99V96.25H235.626C235.626 93.5682 235.081 91.1932 233.99 89.125C232.899 87.0341 231.365 85.3864 229.388 84.1818C227.433 82.9773 225.138 82.375 222.501 82.375C219.638 82.375 217.138 83.0795 215.001 84.4886C212.888 85.875 211.251 87.6932 210.092 89.9432C208.956 92.1705 208.388 94.5909 208.388 97.2045V103.17C208.388 106.67 209.001 109.648 210.228 112.102C211.478 114.557 213.217 116.432 215.444 117.727C217.672 119 220.274 119.636 223.251 119.636C225.183 119.636 226.944 119.364 228.535 118.818C230.126 118.25 231.501 117.409 232.66 116.295C233.819 115.182 234.706 113.807 235.319 112.17L244.967 113.909C244.194 116.75 242.808 119.239 240.808 121.375C238.831 123.489 236.342 125.136 233.342 126.318C230.365 127.477 226.967 128.057 223.149 128.057ZM264.91 95.9091V127H254.717V74.6364H264.501V83.1591H265.148C266.353 80.3864 268.239 78.1591 270.807 76.4773C273.398 74.7955 276.66 73.9545 280.592 73.9545C284.16 73.9545 287.285 74.7045 289.967 76.2045C292.648 77.6818 294.728 79.8864 296.205 82.8182C297.682 85.75 298.421 89.375 298.421 93.6932V127H288.228V94.9205C288.228 91.125 287.239 88.1591 285.262 86.0227C283.285 83.8636 280.569 82.7841 277.114 82.7841C274.751 82.7841 272.648 83.2955 270.807 84.3182C268.989 85.3409 267.546 86.8409 266.478 88.8182C265.432 90.7727 264.91 93.1364 264.91 95.9091ZM332.452 128.057C327.293 128.057 322.849 126.955 319.122 124.75C315.418 122.523 312.554 119.398 310.531 115.375C308.531 111.33 307.531 106.591 307.531 101.159C307.531 95.7955 308.531 91.0682 310.531 86.9773C312.554 82.8864 315.372 79.6932 318.986 77.3977C322.622 75.1023 326.872 73.9545 331.736 73.9545C334.69 73.9545 337.554 74.4432 340.327 75.4205C343.099 76.3977 345.588 77.9318 347.793 80.0227C349.997 82.1136 351.736 84.8295 353.009 88.1705C354.281 91.4886 354.918 95.5227 354.918 100.273V103.886H313.293V96.25H344.929C344.929 93.5682 344.384 91.1932 343.293 89.125C342.202 87.0341 340.668 85.3864 338.69 84.1818C336.736 82.9773 334.44 82.375 331.804 82.375C328.94 82.375 326.44 83.0795 324.304 84.4886C322.19 85.875 320.554 87.6932 319.395 89.9432C318.259 92.1705 317.69 94.5909 317.69 97.2045V103.17C317.69 106.67 318.304 109.648 319.531 112.102C320.781 114.557 322.52 116.432 324.747 117.727C326.974 119 329.577 119.636 332.554 119.636C334.486 119.636 336.247 119.364 337.838 118.818C339.429 118.25 340.804 117.409 341.963 116.295C343.122 115.182 344.009 113.807 344.622 112.17L354.27 113.909C353.497 116.75 352.111 119.239 350.111 121.375C348.134 123.489 345.645 125.136 342.645 126.318C339.668 127.477 336.27 128.057 332.452 128.057ZM364.019 127V74.6364H373.872V82.9545H374.417C375.372 80.1364 377.053 77.9205 379.462 76.3068C381.894 74.6705 384.644 73.8523 387.712 73.8523C388.349 73.8523 389.099 73.875 389.962 73.9205C390.849 73.9659 391.542 74.0227 392.042 74.0909V83.8409C391.633 83.7273 390.906 83.6023 389.86 83.4659C388.815 83.3068 387.769 83.2273 386.724 83.2273C384.315 83.2273 382.167 83.7386 380.281 84.7614C378.417 85.7614 376.94 87.1591 375.849 88.9545C374.758 90.7273 374.212 92.75 374.212 95.0227V127H364.019ZM398.655 127V74.6364H408.848V127H398.655ZM403.803 66.5568C402.03 66.5568 400.507 65.9659 399.235 64.7841C397.985 63.5795 397.36 62.1477 397.36 60.4886C397.36 58.8068 397.985 57.375 399.235 56.1932C400.507 54.9886 402.03 54.3864 403.803 54.3864C405.575 54.3864 407.087 54.9886 408.337 56.1932C409.61 57.375 410.246 58.8068 410.246 60.4886C410.246 62.1477 409.61 63.5795 408.337 64.7841C407.087 65.9659 405.575 66.5568 403.803 66.5568ZM442.41 128.057C437.342 128.057 432.978 126.909 429.319 124.614C425.683 122.295 422.887 119.102 420.933 115.034C418.978 110.966 418.001 106.307 418.001 101.057C418.001 95.7386 419.001 91.0455 421.001 86.9773C423.001 82.8864 425.819 79.6932 429.456 77.3977C433.092 75.1023 437.376 73.9545 442.308 73.9545C446.285 73.9545 449.831 74.6932 452.944 76.1705C456.058 77.625 458.569 79.6705 460.478 82.3068C462.41 84.9432 463.558 88.0227 463.921 91.5455H454.001C453.456 89.0909 452.206 86.9773 450.251 85.2045C448.319 83.4318 445.728 82.5455 442.478 82.5455C439.637 82.5455 437.149 83.2955 435.012 84.7955C432.899 86.2727 431.251 88.3864 430.069 91.1364C428.887 93.8636 428.296 97.0909 428.296 100.818C428.296 104.636 428.876 107.932 430.035 110.705C431.194 113.477 432.831 115.625 434.944 117.148C437.081 118.67 439.592 119.432 442.478 119.432C444.41 119.432 446.16 119.08 447.728 118.375C449.319 117.648 450.649 116.614 451.717 115.273C452.808 113.932 453.569 112.318 454.001 110.432H463.921C463.558 113.818 462.456 116.841 460.615 119.5C458.774 122.159 456.308 124.25 453.217 125.773C450.149 127.295 446.546 128.057 442.41 128.057Z" fill="black" fill-opacity="0.8"/>
<path d="M-1 12C-1 4.8203 4.8203 -1 12 -1H593L591 1H12C5.92487 1 1 5.92487 1 12H-1ZM593 185H-1L1 183H591L593 185ZM-1 185V12C-1 4.8203 4.8203 -1 12 -1V1C5.92487 1 1 5.92487 1 12V183L-1 185ZM593 -1V185L591 183V1L593 -1Z" fill="black" fill-opacity="0.2"/>
<g filter="url(#filter0_ddd_22_1164)">
<rect width="416" height="240" transform="translate(1256 272)" fill="#FFD966"/>
<path d="M1304.47 322.455C1304.47 325.561 1303.9 328.231 1302.76 330.466C1301.63 332.691 1300.07 334.405 1298.09 335.608C1296.12 336.801 1293.88 337.398 1291.37 337.398C1288.85 337.398 1286.6 336.801 1284.62 335.608C1282.65 334.405 1281.1 332.687 1279.96 330.452C1278.83 328.217 1278.26 325.551 1278.26 322.455C1278.26 319.348 1278.83 316.683 1279.96 314.457C1281.1 312.223 1282.65 310.509 1284.62 309.315C1286.6 308.113 1288.85 307.511 1291.37 307.511C1293.88 307.511 1296.12 308.113 1298.09 309.315C1300.07 310.509 1301.63 312.223 1302.76 314.457C1303.9 316.683 1304.47 319.348 1304.47 322.455ZM1300.12 322.455C1300.12 320.087 1299.74 318.094 1298.97 316.474C1298.21 314.846 1297.17 313.615 1295.84 312.781C1294.53 311.938 1293.04 311.517 1291.37 311.517C1289.69 311.517 1288.2 311.938 1286.88 312.781C1285.56 313.615 1284.52 314.846 1283.76 316.474C1283 318.094 1282.62 320.087 1282.62 322.455C1282.62 324.822 1283 326.82 1283.76 328.449C1284.52 330.068 1285.56 331.299 1286.88 332.142C1288.2 332.975 1289.69 333.392 1291.37 333.392C1293.04 333.392 1294.53 332.975 1295.84 332.142C1297.17 331.299 1298.21 330.068 1298.97 328.449C1299.74 326.82 1300.12 324.822 1300.12 322.455ZM1308.72 337V315.182H1312.82V318.648H1313.05C1313.45 317.473 1314.15 316.55 1315.15 315.878C1316.17 315.196 1317.31 314.855 1318.59 314.855C1318.85 314.855 1319.17 314.865 1319.53 314.884C1319.9 314.902 1320.19 314.926 1320.39 314.955V319.017C1320.22 318.97 1319.92 318.918 1319.48 318.861C1319.05 318.795 1318.61 318.761 1318.18 318.761C1317.17 318.761 1316.28 318.974 1315.49 319.401C1314.72 319.817 1314.1 320.4 1313.65 321.148C1313.19 321.886 1312.96 322.729 1312.96 323.676V337H1308.72ZM1330.58 337.426C1328.81 337.426 1327.24 336.976 1325.86 336.077C1324.49 335.168 1323.41 333.875 1322.62 332.199C1321.84 330.513 1321.46 328.491 1321.46 326.134C1321.46 323.776 1321.85 321.759 1322.63 320.082C1323.43 318.406 1324.52 317.123 1325.9 316.233C1327.28 315.343 1328.85 314.898 1330.6 314.898C1331.96 314.898 1333.05 315.125 1333.87 315.58C1334.7 316.025 1335.35 316.545 1335.8 317.142C1336.27 317.739 1336.63 318.264 1336.88 318.719H1337.14V307.909H1341.38V337H1337.24V333.605H1336.88C1336.63 334.069 1336.26 334.599 1335.77 335.196C1335.3 335.793 1334.65 336.313 1333.81 336.759C1332.98 337.204 1331.9 337.426 1330.58 337.426ZM1331.51 333.804C1332.73 333.804 1333.77 333.482 1334.61 332.838C1335.46 332.185 1336.11 331.28 1336.54 330.125C1336.99 328.97 1337.21 327.625 1337.21 326.091C1337.21 324.576 1336.99 323.25 1336.56 322.114C1336.12 320.977 1335.48 320.092 1334.64 319.457C1333.79 318.823 1332.75 318.506 1331.51 318.506C1330.23 318.506 1329.17 318.837 1328.32 319.5C1327.46 320.163 1326.82 321.067 1326.38 322.213C1325.96 323.359 1325.75 324.652 1325.75 326.091C1325.75 327.549 1325.96 328.861 1326.4 330.026C1326.83 331.19 1327.48 332.114 1328.33 332.795C1329.19 333.468 1330.25 333.804 1331.51 333.804ZM1355.97 337.44C1353.82 337.44 1351.97 336.981 1350.42 336.062C1348.87 335.134 1347.68 333.832 1346.84 332.156C1346 330.471 1345.59 328.496 1345.59 326.233C1345.59 323.998 1346 322.028 1346.84 320.324C1347.68 318.619 1348.85 317.289 1350.36 316.332C1351.87 315.376 1353.65 314.898 1355.67 314.898C1356.9 314.898 1358.1 315.101 1359.25 315.509C1360.41 315.916 1361.44 316.555 1362.36 317.426C1363.28 318.297 1364.01 319.429 1364.54 320.821C1365.07 322.204 1365.33 323.884 1365.33 325.864V327.369H1347.99V324.188H1361.17C1361.17 323.07 1360.94 322.08 1360.49 321.219C1360.03 320.348 1359.39 319.661 1358.57 319.159C1357.76 318.657 1356.8 318.406 1355.7 318.406C1354.51 318.406 1353.47 318.7 1352.58 319.287C1351.69 319.865 1351.01 320.622 1350.53 321.56C1350.06 322.488 1349.82 323.496 1349.82 324.585V327.071C1349.82 328.529 1350.08 329.77 1350.59 330.793C1351.11 331.815 1351.83 332.597 1352.76 333.136C1353.69 333.667 1354.77 333.932 1356.01 333.932C1356.82 333.932 1357.55 333.818 1358.21 333.591C1358.88 333.354 1359.45 333.004 1359.93 332.54C1360.42 332.076 1360.79 331.503 1361.04 330.821L1365.06 331.545C1364.74 332.729 1364.16 333.766 1363.33 334.656C1362.5 335.537 1361.47 336.223 1360.22 336.716C1358.98 337.199 1357.56 337.44 1355.97 337.44ZM1369.16 337V315.182H1373.27V318.648H1373.5C1373.89 317.473 1374.59 316.55 1375.6 315.878C1376.61 315.196 1377.76 314.855 1379.04 314.855C1379.3 314.855 1379.61 314.865 1379.97 314.884C1380.34 314.902 1380.63 314.926 1380.84 314.955V319.017C1380.67 318.97 1380.37 318.918 1379.93 318.861C1379.49 318.795 1379.06 318.761 1378.62 318.761C1377.62 318.761 1376.72 318.974 1375.94 319.401C1375.16 319.817 1374.55 320.4 1374.09 321.148C1373.64 321.886 1373.41 322.729 1373.41 323.676V337H1369.16ZM1393.34 345.182V315.182H1397.49V318.719H1397.84C1398.09 318.264 1398.44 317.739 1398.91 317.142C1399.37 316.545 1400.02 316.025 1400.84 315.58C1401.66 315.125 1402.75 314.898 1404.11 314.898C1405.87 314.898 1407.44 315.343 1408.82 316.233C1410.21 317.123 1411.29 318.406 1412.08 320.082C1412.87 321.759 1413.27 323.776 1413.27 326.134C1413.27 328.491 1412.88 330.513 1412.09 332.199C1411.3 333.875 1410.23 335.168 1408.85 336.077C1407.48 336.976 1405.91 337.426 1404.15 337.426C1402.82 337.426 1401.74 337.204 1400.9 336.759C1400.06 336.313 1399.41 335.793 1398.94 335.196C1398.46 334.599 1398.1 334.069 1397.84 333.605H1397.59V345.182H1393.34ZM1397.5 326.091C1397.5 327.625 1397.73 328.97 1398.17 330.125C1398.62 331.28 1399.26 332.185 1400.1 332.838C1400.94 333.482 1401.98 333.804 1403.2 333.804C1404.47 333.804 1405.53 333.468 1406.38 332.795C1407.23 332.114 1407.88 331.19 1408.31 330.026C1408.76 328.861 1408.98 327.549 1408.98 326.091C1408.98 324.652 1408.76 323.359 1408.33 322.213C1407.9 321.067 1407.26 320.163 1406.39 319.5C1405.54 318.837 1404.48 318.506 1403.2 318.506C1401.97 318.506 1400.93 318.823 1400.07 319.457C1399.23 320.092 1398.59 320.977 1398.16 322.114C1397.72 323.25 1397.5 324.576 1397.5 326.091ZM1417.15 337V315.182H1421.25V318.648H1421.48C1421.88 317.473 1422.58 316.55 1423.58 315.878C1424.6 315.196 1425.74 314.855 1427.02 314.855C1427.29 314.855 1427.6 314.865 1427.96 314.884C1428.33 314.902 1428.62 314.926 1428.82 314.955V319.017C1428.65 318.97 1428.35 318.918 1427.92 318.861C1427.48 318.795 1427.04 318.761 1426.61 318.761C1425.6 318.761 1424.71 318.974 1423.92 319.401C1423.15 319.817 1422.53 320.4 1422.08 321.148C1421.62 321.886 1421.4 322.729 1421.4 323.676V337H1417.15ZM1440.03 337.44C1437.98 337.44 1436.2 336.972 1434.67 336.034C1433.15 335.097 1431.97 333.785 1431.12 332.099C1430.28 330.414 1429.86 328.444 1429.86 326.19C1429.86 323.927 1430.28 321.948 1431.12 320.253C1431.97 318.558 1433.15 317.241 1434.67 316.304C1436.2 315.366 1437.98 314.898 1440.03 314.898C1442.07 314.898 1443.86 315.366 1445.38 316.304C1446.91 317.241 1448.09 318.558 1448.94 320.253C1449.78 321.948 1450.2 323.927 1450.2 326.19C1450.2 328.444 1449.78 330.414 1448.94 332.099C1448.09 333.785 1446.91 335.097 1445.38 336.034C1443.86 336.972 1442.07 337.44 1440.03 337.44ZM1440.04 333.875C1441.37 333.875 1442.47 333.525 1443.34 332.824C1444.21 332.123 1444.85 331.19 1445.27 330.026C1445.7 328.861 1445.91 327.578 1445.91 326.176C1445.91 324.784 1445.7 323.506 1445.27 322.341C1444.85 321.167 1444.21 320.224 1443.34 319.514C1442.47 318.804 1441.37 318.449 1440.04 318.449C1438.71 318.449 1437.6 318.804 1436.72 319.514C1435.85 320.224 1435.2 321.167 1434.77 322.341C1434.36 323.506 1434.15 324.784 1434.15 326.176C1434.15 327.578 1434.36 328.861 1434.77 330.026C1435.2 331.19 1435.85 332.123 1436.72 332.824C1437.6 333.525 1438.71 333.875 1440.04 333.875ZM1463.25 337.44C1461.14 337.44 1459.32 336.962 1457.8 336.006C1456.28 335.04 1455.12 333.709 1454.3 332.014C1453.49 330.319 1453.08 328.378 1453.08 326.19C1453.08 323.974 1453.5 322.019 1454.33 320.324C1455.16 318.619 1456.34 317.289 1457.85 316.332C1459.37 315.376 1461.15 314.898 1463.21 314.898C1464.87 314.898 1466.34 315.205 1467.64 315.821C1468.94 316.427 1469.98 317.279 1470.78 318.378C1471.58 319.476 1472.06 320.759 1472.21 322.227H1468.08C1467.85 321.205 1467.33 320.324 1466.52 319.585C1465.71 318.847 1464.63 318.477 1463.28 318.477C1462.1 318.477 1461.06 318.79 1460.17 319.415C1459.29 320.03 1458.6 320.911 1458.11 322.057C1457.62 323.193 1457.37 324.538 1457.37 326.091C1457.37 327.682 1457.61 329.055 1458.09 330.21C1458.58 331.366 1459.26 332.26 1460.14 332.895C1461.03 333.529 1462.08 333.847 1463.28 333.847C1464.08 333.847 1464.81 333.7 1465.47 333.406C1466.13 333.103 1466.68 332.672 1467.13 332.114C1467.58 331.555 1467.9 330.883 1468.08 330.097H1472.21C1472.06 331.508 1471.6 332.767 1470.84 333.875C1470.07 334.983 1469.04 335.854 1467.75 336.489C1466.47 337.123 1464.97 337.44 1463.25 337.44ZM1485.28 337.44C1483.13 337.44 1481.28 336.981 1479.72 336.062C1478.18 335.134 1476.99 333.832 1476.15 332.156C1475.31 330.471 1474.9 328.496 1474.9 326.233C1474.9 323.998 1475.31 322.028 1476.15 320.324C1476.99 318.619 1478.16 317.289 1479.67 316.332C1481.18 315.376 1482.95 314.898 1484.98 314.898C1486.21 314.898 1487.4 315.101 1488.56 315.509C1489.72 315.916 1490.75 316.555 1491.67 317.426C1492.59 318.297 1493.31 319.429 1493.84 320.821C1494.37 322.204 1494.64 323.884 1494.64 325.864V327.369H1477.3V324.188H1490.48C1490.48 323.07 1490.25 322.08 1489.8 321.219C1489.34 320.348 1488.7 319.661 1487.88 319.159C1487.06 318.657 1486.11 318.406 1485.01 318.406C1483.82 318.406 1482.77 318.7 1481.88 319.287C1481 319.865 1480.32 320.622 1479.84 321.56C1479.37 322.488 1479.13 323.496 1479.13 324.585V327.071C1479.13 328.529 1479.38 329.77 1479.9 330.793C1480.42 331.815 1481.14 332.597 1482.07 333.136C1483 333.667 1484.08 333.932 1485.32 333.932C1486.13 333.932 1486.86 333.818 1487.52 333.591C1488.19 333.354 1488.76 333.004 1489.24 332.54C1489.72 332.076 1490.09 331.503 1490.35 330.821L1494.37 331.545C1494.05 332.729 1493.47 333.766 1492.64 334.656C1491.81 335.537 1490.78 336.223 1489.53 336.716C1488.29 337.199 1486.87 337.44 1485.28 337.44ZM1514.82 320.509L1510.97 321.19C1510.81 320.698 1510.56 320.229 1510.2 319.784C1509.86 319.339 1509.4 318.974 1508.81 318.69C1508.23 318.406 1507.49 318.264 1506.61 318.264C1505.41 318.264 1504.4 318.534 1503.6 319.074C1502.79 319.604 1502.39 320.291 1502.39 321.134C1502.39 321.863 1502.66 322.45 1503.2 322.895C1503.74 323.34 1504.61 323.705 1505.82 323.989L1509.28 324.784C1511.29 325.248 1512.79 325.963 1513.77 326.929C1514.76 327.895 1515.25 329.15 1515.25 330.693C1515.25 332 1514.87 333.165 1514.11 334.188C1513.36 335.201 1512.32 335.996 1510.97 336.574C1509.64 337.152 1508.09 337.44 1506.33 337.44C1503.88 337.44 1501.89 336.92 1500.35 335.878C1498.8 334.827 1497.86 333.335 1497.51 331.403L1501.61 330.778C1501.87 331.848 1502.39 332.658 1503.19 333.207C1503.98 333.747 1505.02 334.017 1506.3 334.017C1507.69 334.017 1508.8 333.728 1509.64 333.151C1510.47 332.563 1510.89 331.848 1510.89 331.006C1510.89 330.324 1510.63 329.751 1510.12 329.287C1509.62 328.823 1508.85 328.473 1507.8 328.236L1504.11 327.426C1502.08 326.962 1500.57 326.223 1499.59 325.21C1498.63 324.197 1498.15 322.914 1498.15 321.361C1498.15 320.073 1498.51 318.946 1499.22 317.98C1499.94 317.014 1500.94 316.261 1502.21 315.722C1503.48 315.172 1504.93 314.898 1506.57 314.898C1508.93 314.898 1510.78 315.409 1512.14 316.432C1513.49 317.445 1514.39 318.804 1514.82 320.509ZM1535.39 320.509L1531.54 321.19C1531.38 320.698 1531.12 320.229 1530.77 319.784C1530.43 319.339 1529.97 318.974 1529.38 318.69C1528.79 318.406 1528.06 318.264 1527.18 318.264C1525.97 318.264 1524.97 318.534 1524.17 319.074C1523.36 319.604 1522.96 320.291 1522.96 321.134C1522.96 321.863 1523.23 322.45 1523.77 322.895C1524.31 323.34 1525.18 323.705 1526.38 323.989L1529.85 324.784C1531.85 325.248 1533.35 325.963 1534.34 326.929C1535.32 327.895 1535.81 329.15 1535.81 330.693C1535.81 332 1535.43 333.165 1534.68 334.188C1533.93 335.201 1532.88 335.996 1531.54 336.574C1530.2 337.152 1528.65 337.44 1526.89 337.44C1524.45 337.44 1522.46 336.92 1520.91 335.878C1519.37 334.827 1518.42 333.335 1518.07 331.403L1522.18 330.778C1522.43 331.848 1522.96 332.658 1523.75 333.207C1524.55 333.747 1525.59 334.017 1526.86 334.017C1528.26 334.017 1529.37 333.728 1530.2 333.151C1531.04 332.563 1531.45 331.848 1531.45 331.006C1531.45 330.324 1531.2 329.751 1530.69 329.287C1530.18 328.823 1529.41 328.473 1528.37 328.236L1524.68 327.426C1522.64 326.962 1521.13 326.223 1520.16 325.21C1519.19 324.197 1518.71 322.914 1518.71 321.361C1518.71 320.073 1519.07 318.946 1519.79 317.98C1520.51 317.014 1521.5 316.261 1522.77 315.722C1524.04 315.172 1525.5 314.898 1527.13 314.898C1529.49 314.898 1531.35 315.409 1532.7 316.432C1534.06 317.445 1534.95 318.804 1535.39 320.509ZM1539.6 337V315.182H1543.85V337H1539.6ZM1541.75 311.815C1541.01 311.815 1540.37 311.569 1539.84 311.077C1539.32 310.575 1539.06 309.978 1539.06 309.287C1539.06 308.586 1539.32 307.99 1539.84 307.497C1540.37 306.995 1541.01 306.744 1541.75 306.744C1542.49 306.744 1543.12 306.995 1543.64 307.497C1544.17 307.99 1544.43 308.586 1544.43 309.287C1544.43 309.978 1544.17 310.575 1543.64 311.077C1543.12 311.569 1542.49 311.815 1541.75 311.815ZM1552.93 324.045V337H1548.68V315.182H1552.76V318.733H1553.03C1553.53 317.578 1554.32 316.65 1555.39 315.949C1556.47 315.248 1557.83 314.898 1559.46 314.898C1560.95 314.898 1562.25 315.21 1563.37 315.835C1564.49 316.451 1565.35 317.369 1565.97 318.591C1566.59 319.812 1566.89 321.323 1566.89 323.122V337H1562.65V323.634C1562.65 322.052 1562.23 320.816 1561.41 319.926C1560.59 319.027 1559.46 318.577 1558.02 318.577C1557.03 318.577 1556.16 318.79 1555.39 319.216C1554.63 319.642 1554.03 320.267 1553.58 321.091C1553.15 321.905 1552.93 322.89 1552.93 324.045ZM1580.86 345.636C1579.12 345.636 1577.63 345.409 1576.38 344.955C1575.14 344.5 1574.13 343.899 1573.34 343.151C1572.56 342.402 1571.97 341.583 1571.58 340.693L1575.23 339.188C1575.49 339.604 1575.83 340.045 1576.26 340.509C1576.69 340.982 1577.28 341.384 1578.02 341.716C1578.76 342.047 1579.73 342.213 1580.9 342.213C1582.51 342.213 1583.84 341.82 1584.89 341.034C1585.94 340.258 1586.47 339.017 1586.47 337.312V333.023H1586.2C1585.94 333.487 1585.57 334.003 1585.09 334.571C1584.62 335.139 1583.96 335.632 1583.13 336.048C1582.3 336.465 1581.21 336.673 1579.88 336.673C1578.15 336.673 1576.6 336.271 1575.22 335.466C1573.85 334.652 1572.76 333.454 1571.95 331.872C1571.16 330.281 1570.76 328.326 1570.76 326.006C1570.76 323.686 1571.15 321.697 1571.94 320.04C1572.73 318.383 1573.82 317.114 1575.2 316.233C1576.59 315.343 1578.15 314.898 1579.91 314.898C1581.26 314.898 1582.35 315.125 1583.19 315.58C1584.02 316.025 1584.67 316.545 1585.13 317.142C1585.61 317.739 1585.97 318.264 1586.23 318.719H1586.54V315.182H1590.7V337.483C1590.7 339.358 1590.27 340.897 1589.39 342.099C1588.52 343.302 1587.34 344.192 1585.86 344.77C1584.38 345.348 1582.71 345.636 1580.86 345.636ZM1580.81 333.151C1582.04 333.151 1583.07 332.866 1583.91 332.298C1584.76 331.721 1585.41 330.897 1585.84 329.827C1586.29 328.747 1586.51 327.455 1586.51 325.949C1586.51 324.481 1586.29 323.188 1585.86 322.071C1585.42 320.954 1584.78 320.082 1583.94 319.457C1583.1 318.823 1582.06 318.506 1580.81 318.506C1579.54 318.506 1578.47 318.837 1577.62 319.5C1576.77 320.153 1576.12 321.044 1575.69 322.17C1575.26 323.297 1575.05 324.557 1575.05 325.949C1575.05 327.379 1575.27 328.634 1575.7 329.713C1576.14 330.793 1576.78 331.635 1577.63 332.241C1578.49 332.848 1579.56 333.151 1580.81 333.151Z" fill="black" fill-opacity="0.8"/>
</g>
<g filter="url(#filter1_ddd_22_1164)">
<rect width="416" height="240" transform="translate(680 624)" fill="#FFD966"/>
<path d="M703.196 689V659.909H713.849C715.914 659.909 717.623 660.25 718.977 660.932C720.331 661.604 721.345 662.518 722.017 663.673C722.689 664.819 723.026 666.112 723.026 667.551C723.026 668.763 722.803 669.786 722.358 670.619C721.913 671.443 721.316 672.106 720.568 672.608C719.83 673.1 719.015 673.46 718.125 673.688V673.972C719.091 674.019 720.033 674.331 720.952 674.909C721.88 675.477 722.647 676.287 723.253 677.338C723.859 678.389 724.162 679.668 724.162 681.173C724.162 682.66 723.812 683.995 723.111 685.179C722.42 686.353 721.349 687.286 719.901 687.977C718.452 688.659 716.6 689 714.347 689H703.196ZM707.585 685.236H713.92C716.023 685.236 717.528 684.829 718.438 684.014C719.347 683.2 719.801 682.182 719.801 680.96C719.801 680.042 719.569 679.199 719.105 678.432C718.641 677.665 717.978 677.054 717.116 676.599C716.264 676.145 715.251 675.918 714.077 675.918H707.585V685.236ZM707.585 672.494H713.466C714.451 672.494 715.336 672.305 716.122 671.926C716.918 671.547 717.547 671.017 718.011 670.335C718.485 669.644 718.722 668.83 718.722 667.892C718.722 666.689 718.3 665.681 717.457 664.866C716.615 664.052 715.322 663.645 713.58 663.645H707.585V672.494ZM728.147 689V667.182H732.394V689H728.147ZM730.292 663.815C729.553 663.815 728.919 663.569 728.388 663.077C727.868 662.575 727.607 661.978 727.607 661.287C727.607 660.586 727.868 659.99 728.388 659.497C728.919 658.995 729.553 658.744 730.292 658.744C731.031 658.744 731.66 658.995 732.181 659.497C732.711 659.99 732.977 660.586 732.977 661.287C732.977 661.978 732.711 662.575 732.181 663.077C731.66 663.569 731.031 663.815 730.292 663.815ZM745.396 689.426C743.634 689.426 742.062 688.976 740.68 688.077C739.307 687.168 738.227 685.875 737.441 684.199C736.664 682.513 736.276 680.491 736.276 678.134C736.276 675.776 736.669 673.759 737.455 672.082C738.251 670.406 739.34 669.123 740.722 668.233C742.105 667.343 743.672 666.898 745.424 666.898C746.778 666.898 747.867 667.125 748.691 667.58C749.524 668.025 750.168 668.545 750.623 669.142C751.087 669.739 751.447 670.264 751.702 670.719H751.958V659.909H756.205V689H752.057V685.605H751.702C751.447 686.069 751.077 686.599 750.594 687.196C750.121 687.793 749.468 688.313 748.634 688.759C747.801 689.204 746.721 689.426 745.396 689.426ZM746.333 685.804C747.555 685.804 748.587 685.482 749.43 684.838C750.282 684.185 750.926 683.28 751.361 682.125C751.807 680.97 752.029 679.625 752.029 678.091C752.029 676.576 751.811 675.25 751.376 674.114C750.94 672.977 750.301 672.092 749.458 671.457C748.615 670.823 747.574 670.506 746.333 670.506C745.055 670.506 743.989 670.837 743.137 671.5C742.285 672.163 741.641 673.067 741.205 674.213C740.779 675.359 740.566 676.652 740.566 678.091C740.566 679.549 740.784 680.861 741.219 682.026C741.655 683.19 742.299 684.114 743.151 684.795C744.013 685.468 745.074 685.804 746.333 685.804ZM777.736 672.509L773.887 673.19C773.726 672.698 773.47 672.229 773.12 671.784C772.779 671.339 772.315 670.974 771.728 670.69C771.141 670.406 770.407 670.264 769.526 670.264C768.324 670.264 767.32 670.534 766.515 671.074C765.71 671.604 765.307 672.291 765.307 673.134C765.307 673.863 765.577 674.45 766.117 674.895C766.657 675.34 767.528 675.705 768.731 675.989L772.197 676.784C774.204 677.248 775.7 677.963 776.685 678.929C777.67 679.895 778.163 681.15 778.163 682.693C778.163 684 777.784 685.165 777.026 686.188C776.278 687.201 775.232 687.996 773.887 688.574C772.552 689.152 771.003 689.44 769.242 689.44C766.799 689.44 764.806 688.92 763.262 687.878C761.718 686.827 760.771 685.335 760.421 683.403L764.526 682.778C764.782 683.848 765.307 684.658 766.103 685.207C766.898 685.747 767.935 686.017 769.214 686.017C770.606 686.017 771.718 685.728 772.552 685.151C773.385 684.563 773.802 683.848 773.802 683.006C773.802 682.324 773.546 681.751 773.035 681.287C772.533 680.823 771.761 680.473 770.719 680.236L767.026 679.426C764.99 678.962 763.485 678.223 762.509 677.21C761.543 676.197 761.06 674.914 761.06 673.361C761.06 672.073 761.42 670.946 762.14 669.98C762.86 669.014 763.854 668.261 765.123 667.722C766.392 667.172 767.845 666.898 769.484 666.898C771.842 666.898 773.698 667.409 775.052 668.432C776.406 669.445 777.301 670.804 777.736 672.509Z" fill="black" fill-opacity="0.8"/>
</g>
<g filter="url(#filter2_ddd_22_1164)">
<rect width="416" height="240" transform="translate(64 624)" fill="#FFD966"/>
<path d="M92.892 689L84.8239 659.909H89.4403L95.108 682.438H95.3778L101.273 659.909H105.847L111.741 682.452H112.011L117.665 659.909H122.295L114.213 689H109.795L103.673 667.21H103.446L97.3239 689H92.892ZM132.119 689.44C130.073 689.44 128.288 688.972 126.763 688.034C125.239 687.097 124.055 685.785 123.212 684.099C122.37 682.414 121.948 680.444 121.948 678.19C121.948 675.927 122.37 673.948 123.212 672.253C124.055 670.558 125.239 669.241 126.763 668.304C128.288 667.366 130.073 666.898 132.119 666.898C134.164 666.898 135.949 667.366 137.474 668.304C138.998 669.241 140.182 670.558 141.025 672.253C141.868 673.948 142.289 675.927 142.289 678.19C142.289 680.444 141.868 682.414 141.025 684.099C140.182 685.785 138.998 687.097 137.474 688.034C135.949 688.972 134.164 689.44 132.119 689.44ZM132.133 685.875C133.459 685.875 134.557 685.525 135.428 684.824C136.299 684.123 136.943 683.19 137.36 682.026C137.786 680.861 137.999 679.578 137.999 678.176C137.999 676.784 137.786 675.506 137.36 674.341C136.943 673.167 136.299 672.224 135.428 671.514C134.557 670.804 133.459 670.449 132.133 670.449C130.798 670.449 129.69 670.804 128.809 671.514C127.938 672.224 127.289 673.167 126.863 674.341C126.446 675.506 126.238 676.784 126.238 678.176C126.238 679.578 126.446 680.861 126.863 682.026C127.289 683.19 127.938 684.123 128.809 684.824C129.69 685.525 130.798 685.875 132.133 685.875ZM146.15 689V667.182H150.255V670.648H150.482C150.88 669.473 151.581 668.55 152.584 667.878C153.598 667.196 154.744 666.855 156.022 666.855C156.287 666.855 156.6 666.865 156.959 666.884C157.329 666.902 157.618 666.926 157.826 666.955V671.017C157.655 670.97 157.352 670.918 156.917 670.861C156.481 670.795 156.046 670.761 155.61 670.761C154.606 670.761 153.711 670.974 152.925 671.401C152.149 671.817 151.533 672.4 151.079 673.148C150.624 673.886 150.397 674.729 150.397 675.676V689H146.15ZM164.528 681.599L164.499 676.415H165.238L173.931 667.182H179.016L169.101 677.693H168.434L164.528 681.599ZM160.621 689V659.909H164.869V689H160.621ZM174.4 689L166.587 678.631L169.513 675.662L179.613 689H174.4ZM190.512 689.44C188.362 689.44 186.511 688.981 184.958 688.062C183.414 687.134 182.221 685.832 181.378 684.156C180.545 682.471 180.128 680.496 180.128 678.233C180.128 675.998 180.545 674.028 181.378 672.324C182.221 670.619 183.395 669.289 184.901 668.332C186.416 667.376 188.187 666.898 190.214 666.898C191.445 666.898 192.638 667.101 193.793 667.509C194.949 667.916 195.985 668.555 196.904 669.426C197.823 670.297 198.547 671.429 199.077 672.821C199.608 674.204 199.873 675.884 199.873 677.864V679.369H182.529V676.188H195.711C195.711 675.07 195.484 674.08 195.029 673.219C194.574 672.348 193.935 671.661 193.111 671.159C192.297 670.657 191.341 670.406 190.242 670.406C189.049 670.406 188.007 670.7 187.117 671.287C186.236 671.865 185.555 672.622 185.072 673.56C184.598 674.488 184.361 675.496 184.361 676.585V679.071C184.361 680.529 184.617 681.77 185.128 682.793C185.649 683.815 186.374 684.597 187.302 685.136C188.23 685.667 189.314 685.932 190.555 685.932C191.36 685.932 192.093 685.818 192.756 685.591C193.419 685.354 193.992 685.004 194.475 684.54C194.958 684.076 195.327 683.503 195.583 682.821L199.603 683.545C199.281 684.729 198.703 685.766 197.87 686.656C197.046 687.537 196.009 688.223 194.759 688.716C193.519 689.199 192.103 689.44 190.512 689.44ZM203.705 689V667.182H207.81V670.648H208.037C208.435 669.473 209.136 668.55 210.14 667.878C211.153 667.196 212.299 666.855 213.577 666.855C213.842 666.855 214.155 666.865 214.515 666.884C214.884 666.902 215.173 666.926 215.381 666.955V671.017C215.211 670.97 214.908 670.918 214.472 670.861C214.037 670.795 213.601 670.761 213.165 670.761C212.162 670.761 211.267 670.974 210.481 671.401C209.704 671.817 209.089 672.4 208.634 673.148C208.18 673.886 207.952 674.729 207.952 675.676V689H203.705ZM232.13 676.045V689H227.883V659.909H232.073V670.733H232.343C232.854 669.559 233.635 668.626 234.687 667.935C235.738 667.243 237.111 666.898 238.806 666.898C240.302 666.898 241.609 667.205 242.726 667.821C243.853 668.437 244.724 669.355 245.34 670.577C245.965 671.789 246.277 673.304 246.277 675.122V689H242.03V675.634C242.03 674.033 241.618 672.793 240.795 671.912C239.971 671.022 238.825 670.577 237.357 670.577C236.353 670.577 235.454 670.79 234.658 671.216C233.872 671.642 233.252 672.267 232.797 673.091C232.352 673.905 232.13 674.89 232.13 676.045ZM251.065 689V667.182H255.312V689H251.065ZM253.21 663.815C252.471 663.815 251.837 663.569 251.307 663.077C250.786 662.575 250.525 661.978 250.525 661.287C250.525 660.586 250.786 659.99 251.307 659.497C251.837 658.995 252.471 658.744 253.21 658.744C253.949 658.744 254.578 658.995 255.099 659.497C255.63 659.99 255.895 660.586 255.895 661.287C255.895 661.978 255.63 662.575 255.099 663.077C254.578 663.569 253.949 663.815 253.21 663.815ZM260.146 689V667.182H264.251V670.648H264.478C264.876 669.473 265.577 668.55 266.581 667.878C267.594 667.196 268.74 666.855 270.018 666.855C270.283 666.855 270.596 666.865 270.956 666.884C271.325 666.902 271.614 666.926 271.822 666.955V671.017C271.652 670.97 271.349 670.918 270.913 670.861C270.477 670.795 270.042 670.761 269.606 670.761C268.602 670.761 267.708 670.974 266.922 671.401C266.145 671.817 265.53 672.4 265.075 673.148C264.62 673.886 264.393 674.729 264.393 675.676V689H260.146ZM274.618 689V667.182H278.865V689H274.618ZM276.762 663.815C276.024 663.815 275.389 663.569 274.859 663.077C274.338 662.575 274.078 661.978 274.078 661.287C274.078 660.586 274.338 659.99 274.859 659.497C275.389 658.995 276.024 658.744 276.762 658.744C277.501 658.744 278.131 658.995 278.652 659.497C279.182 659.99 279.447 660.586 279.447 661.287C279.447 661.978 279.182 662.575 278.652 663.077C278.131 663.569 277.501 663.815 276.762 663.815ZM287.946 676.045V689H283.699V667.182H287.775V670.733H288.045C288.547 669.578 289.333 668.65 290.403 667.949C291.483 667.248 292.842 666.898 294.48 666.898C295.967 666.898 297.269 667.21 298.386 667.835C299.503 668.451 300.37 669.369 300.985 670.591C301.601 671.812 301.909 673.323 301.909 675.122V689H297.662V675.634C297.662 674.052 297.25 672.816 296.426 671.926C295.602 671.027 294.47 670.577 293.031 670.577C292.046 670.577 291.17 670.79 290.403 671.216C289.646 671.642 289.044 672.267 288.599 673.091C288.164 673.905 287.946 674.89 287.946 676.045ZM315.873 697.636C314.14 697.636 312.648 697.409 311.398 696.955C310.158 696.5 309.144 695.899 308.358 695.151C307.572 694.402 306.985 693.583 306.597 692.693L310.248 691.188C310.503 691.604 310.844 692.045 311.27 692.509C311.706 692.982 312.293 693.384 313.032 693.716C313.78 694.047 314.741 694.213 315.915 694.213C317.525 694.213 318.855 693.82 319.907 693.034C320.958 692.258 321.483 691.017 321.483 689.312V685.023H321.213C320.958 685.487 320.588 686.003 320.105 686.571C319.632 687.139 318.979 687.632 318.145 688.048C317.312 688.465 316.228 688.673 314.892 688.673C313.169 688.673 311.616 688.271 310.233 687.466C308.86 686.652 307.771 685.454 306.966 683.872C306.171 682.281 305.773 680.326 305.773 678.006C305.773 675.686 306.166 673.697 306.952 672.04C307.748 670.383 308.837 669.114 310.219 668.233C311.602 667.343 313.169 666.898 314.921 666.898C316.275 666.898 317.369 667.125 318.202 667.58C319.035 668.025 319.684 668.545 320.148 669.142C320.622 669.739 320.986 670.264 321.242 670.719H321.554V667.182H325.716V689.483C325.716 691.358 325.281 692.897 324.409 694.099C323.538 695.302 322.359 696.192 320.873 696.77C319.395 697.348 317.729 697.636 315.873 697.636ZM315.83 685.151C317.052 685.151 318.084 684.866 318.927 684.298C319.779 683.721 320.423 682.897 320.858 681.827C321.303 680.747 321.526 679.455 321.526 677.949C321.526 676.481 321.308 675.188 320.873 674.071C320.437 672.954 319.798 672.082 318.955 671.457C318.112 670.823 317.07 670.506 315.83 670.506C314.552 670.506 313.486 670.837 312.634 671.5C311.782 672.153 311.138 673.044 310.702 674.17C310.276 675.297 310.063 676.557 310.063 677.949C310.063 679.379 310.281 680.634 310.716 681.713C311.152 682.793 311.796 683.635 312.648 684.241C313.51 684.848 314.57 685.151 315.83 685.151Z" fill="black" fill-opacity="0.8"/>
</g>
<g filter="url(#filter3_ddd_22_1164)">
<rect width="416" height="240" transform="translate(680 272)" fill="#FFD966"/>
<path d="M713.892 327.568H718.21L721.25 331.531L722.685 333.293L727.528 339.614H723.04L719.801 335.395L718.693 333.861L713.892 327.568ZM728.466 322.455C728.466 325.561 727.898 328.231 726.761 330.466C725.625 332.691 724.067 334.405 722.088 335.608C720.118 336.801 717.879 337.398 715.369 337.398C712.85 337.398 710.601 336.801 708.622 335.608C706.652 334.405 705.099 332.687 703.963 330.452C702.827 328.217 702.259 325.551 702.259 322.455C702.259 319.348 702.827 316.683 703.963 314.457C705.099 312.223 706.652 310.509 708.622 309.315C710.601 308.113 712.85 307.511 715.369 307.511C717.879 307.511 720.118 308.113 722.088 309.315C724.067 310.509 725.625 312.223 726.761 314.457C727.898 316.683 728.466 319.348 728.466 322.455ZM724.119 322.455C724.119 320.087 723.736 318.094 722.969 316.474C722.211 314.846 721.17 313.615 719.844 312.781C718.527 311.938 717.036 311.517 715.369 311.517C713.693 311.517 712.197 311.938 710.881 312.781C709.564 313.615 708.523 314.846 707.756 316.474C706.998 318.094 706.619 320.087 706.619 322.455C706.619 324.822 706.998 326.82 707.756 328.449C708.523 330.068 709.564 331.299 710.881 332.142C712.197 332.975 713.693 333.392 715.369 333.392C717.036 333.392 718.527 332.975 719.844 332.142C721.17 331.299 722.211 330.068 722.969 328.449C723.736 326.82 724.119 324.822 724.119 322.455ZM746.538 327.952V315.182H750.8V337H746.624V333.222H746.396C745.894 334.386 745.089 335.357 743.982 336.134C742.883 336.901 741.515 337.284 739.876 337.284C738.475 337.284 737.234 336.976 736.155 336.361C735.085 335.736 734.242 334.812 733.626 333.591C733.02 332.369 732.717 330.859 732.717 329.06V315.182H736.964V328.548C736.964 330.035 737.376 331.219 738.2 332.099C739.024 332.98 740.094 333.42 741.41 333.42C742.206 333.42 742.997 333.222 743.783 332.824C744.578 332.426 745.236 331.825 745.757 331.02C746.287 330.215 746.548 329.192 746.538 327.952ZM761.976 337.483C760.593 337.483 759.343 337.227 758.226 336.716C757.108 336.195 756.223 335.442 755.57 334.457C754.926 333.473 754.604 332.265 754.604 330.835C754.604 329.604 754.84 328.591 755.314 327.795C755.787 327 756.427 326.37 757.231 325.906C758.036 325.442 758.936 325.092 759.93 324.855C760.925 324.618 761.938 324.438 762.97 324.315C764.277 324.164 765.338 324.041 766.152 323.946C766.966 323.842 767.558 323.676 767.928 323.449C768.297 323.222 768.481 322.852 768.481 322.341V322.241C768.481 321.001 768.131 320.04 767.43 319.358C766.739 318.676 765.707 318.335 764.334 318.335C762.904 318.335 761.777 318.652 760.953 319.287C760.139 319.912 759.575 320.608 759.263 321.375L755.271 320.466C755.745 319.14 756.436 318.07 757.345 317.256C758.264 316.432 759.32 315.835 760.513 315.466C761.706 315.087 762.961 314.898 764.277 314.898C765.148 314.898 766.071 315.002 767.047 315.21C768.032 315.409 768.95 315.778 769.803 316.318C770.664 316.858 771.37 317.63 771.919 318.634C772.468 319.628 772.743 320.92 772.743 322.511V337H768.595V334.017H768.425C768.15 334.566 767.738 335.106 767.189 335.636C766.64 336.167 765.934 336.607 765.072 336.957C764.211 337.308 763.178 337.483 761.976 337.483ZM762.899 334.074C764.073 334.074 765.077 333.842 765.91 333.378C766.753 332.914 767.392 332.308 767.828 331.56C768.273 330.802 768.496 329.992 768.496 329.131V326.318C768.344 326.47 768.051 326.612 767.615 326.744C767.189 326.867 766.701 326.976 766.152 327.071C765.603 327.156 765.068 327.237 764.547 327.312C764.026 327.379 763.59 327.436 763.24 327.483C762.416 327.587 761.663 327.762 760.981 328.009C760.309 328.255 759.769 328.61 759.362 329.074C758.964 329.528 758.766 330.134 758.766 330.892C758.766 331.943 759.154 332.739 759.93 333.278C760.707 333.809 761.696 334.074 762.899 334.074ZM781.767 307.909V337H777.52V307.909H781.767ZM786.601 337V315.182H790.848V337H786.601ZM788.746 311.815C788.007 311.815 787.373 311.569 786.842 311.077C786.321 310.575 786.061 309.978 786.061 309.287C786.061 308.586 786.321 307.99 786.842 307.497C787.373 306.995 788.007 306.744 788.746 306.744C789.484 306.744 790.114 306.995 790.635 307.497C791.165 307.99 791.43 308.586 791.43 309.287C791.43 309.978 791.165 310.575 790.635 311.077C790.114 311.569 789.484 311.815 788.746 311.815ZM805.866 315.182V318.591H793.949V315.182H805.866ZM797.145 309.955H801.392V330.594C801.392 331.418 801.515 332.038 801.761 332.455C802.007 332.862 802.325 333.141 802.713 333.293C803.111 333.435 803.542 333.506 804.006 333.506C804.346 333.506 804.645 333.482 804.9 333.435C805.156 333.387 805.355 333.349 805.497 333.321L806.264 336.83C806.018 336.924 805.667 337.019 805.213 337.114C804.758 337.218 804.19 337.275 803.508 337.284C802.391 337.303 801.349 337.104 800.383 336.688C799.417 336.271 798.636 335.627 798.04 334.756C797.443 333.884 797.145 332.791 797.145 331.474V309.955ZM812.369 345.182C811.735 345.182 811.157 345.13 810.636 345.026C810.115 344.931 809.727 344.827 809.471 344.713L810.494 341.233C811.271 341.441 811.962 341.531 812.568 341.503C813.174 341.474 813.709 341.247 814.173 340.821C814.647 340.395 815.063 339.699 815.423 338.733L815.949 337.284L807.966 315.182H812.511L818.037 332.114H818.264L823.79 315.182H828.349L819.358 339.912C818.941 341.048 818.411 342.009 817.767 342.795C817.123 343.591 816.356 344.188 815.466 344.585C814.576 344.983 813.543 345.182 812.369 345.182ZM847.516 337.483C846.134 337.483 844.884 337.227 843.766 336.716C842.649 336.195 841.763 335.442 841.11 334.457C840.466 333.473 840.144 332.265 840.144 330.835C840.144 329.604 840.381 328.591 840.854 327.795C841.328 327 841.967 326.37 842.772 325.906C843.577 325.442 844.476 325.092 845.471 324.855C846.465 324.618 847.478 324.438 848.51 324.315C849.817 324.164 850.878 324.041 851.692 323.946C852.507 323.842 853.099 323.676 853.468 323.449C853.837 323.222 854.022 322.852 854.022 322.341V322.241C854.022 321.001 853.671 320.04 852.971 319.358C852.279 318.676 851.247 318.335 849.874 318.335C848.444 318.335 847.317 318.652 846.493 319.287C845.679 319.912 845.116 320.608 844.803 321.375L840.812 320.466C841.285 319.14 841.976 318.07 842.885 317.256C843.804 316.432 844.86 315.835 846.053 315.466C847.246 315.087 848.501 314.898 849.817 314.898C850.688 314.898 851.612 315.002 852.587 315.21C853.572 315.409 854.491 315.778 855.343 316.318C856.205 316.858 856.91 317.63 857.459 318.634C858.009 319.628 858.283 320.92 858.283 322.511V337H854.135V334.017H853.965C853.69 334.566 853.278 335.106 852.729 335.636C852.18 336.167 851.474 336.607 850.613 336.957C849.751 337.308 848.719 337.483 847.516 337.483ZM848.439 334.074C849.614 334.074 850.617 333.842 851.451 333.378C852.294 332.914 852.933 332.308 853.368 331.56C853.813 330.802 854.036 329.992 854.036 329.131V326.318C853.884 326.47 853.591 326.612 853.155 326.744C852.729 326.867 852.241 326.976 851.692 327.071C851.143 327.156 850.608 327.237 850.087 327.312C849.566 327.379 849.131 327.436 848.78 327.483C847.956 327.587 847.204 327.762 846.522 328.009C845.849 328.255 845.31 328.61 844.902 329.074C844.505 329.528 844.306 330.134 844.306 330.892C844.306 331.943 844.694 332.739 845.471 333.278C846.247 333.809 847.237 334.074 848.439 334.074ZM879.41 320.509L875.56 321.19C875.399 320.698 875.143 320.229 874.793 319.784C874.452 319.339 873.988 318.974 873.401 318.69C872.814 318.406 872.08 318.264 871.199 318.264C869.997 318.264 868.993 318.534 868.188 319.074C867.383 319.604 866.981 320.291 866.981 321.134C866.981 321.863 867.25 322.45 867.79 322.895C868.33 323.34 869.201 323.705 870.404 323.989L873.87 324.784C875.877 325.248 877.374 325.963 878.358 326.929C879.343 327.895 879.836 329.15 879.836 330.693C879.836 332 879.457 333.165 878.699 334.188C877.951 335.201 876.905 335.996 875.56 336.574C874.225 337.152 872.677 337.44 870.915 337.44C868.472 337.44 866.479 336.92 864.935 335.878C863.392 334.827 862.445 333.335 862.094 331.403L866.199 330.778C866.455 331.848 866.981 332.658 867.776 333.207C868.571 333.747 869.608 334.017 870.887 334.017C872.279 334.017 873.392 333.728 874.225 333.151C875.058 332.563 875.475 331.848 875.475 331.006C875.475 330.324 875.219 329.751 874.708 329.287C874.206 328.823 873.434 328.473 872.393 328.236L868.699 327.426C866.663 326.962 865.158 326.223 864.182 325.21C863.216 324.197 862.733 322.914 862.733 321.361C862.733 320.073 863.093 318.946 863.813 317.98C864.533 317.014 865.527 316.261 866.796 315.722C868.065 315.172 869.518 314.898 871.157 314.898C873.515 314.898 875.371 315.409 876.725 316.432C878.079 317.445 878.974 318.804 879.41 320.509ZM899.975 320.509L896.125 321.19C895.964 320.698 895.709 320.229 895.358 319.784C895.017 319.339 894.553 318.974 893.966 318.69C893.379 318.406 892.645 318.264 891.765 318.264C890.562 318.264 889.558 318.534 888.753 319.074C887.948 319.604 887.546 320.291 887.546 321.134C887.546 321.863 887.816 322.45 888.356 322.895C888.895 323.34 889.767 323.705 890.969 323.989L894.435 324.784C896.443 325.248 897.939 325.963 898.924 326.929C899.909 327.895 900.401 329.15 900.401 330.693C900.401 332 900.022 333.165 899.265 334.188C898.517 335.201 897.47 335.996 896.125 336.574C894.79 337.152 893.242 337.44 891.481 337.44C889.037 337.44 887.044 336.92 885.5 335.878C883.957 334.827 883.01 333.335 882.66 331.403L886.765 330.778C887.02 331.848 887.546 332.658 888.341 333.207C889.137 333.747 890.174 334.017 891.452 334.017C892.844 334.017 893.957 333.728 894.79 333.151C895.624 332.563 896.04 331.848 896.04 331.006C896.04 330.324 895.785 329.751 895.273 329.287C894.771 328.823 893.999 328.473 892.958 328.236L889.265 327.426C887.229 326.962 885.723 326.223 884.748 325.21C883.782 324.197 883.299 322.914 883.299 321.361C883.299 320.073 883.659 318.946 884.378 317.98C885.098 317.014 886.092 316.261 887.361 315.722C888.63 315.172 890.084 314.898 891.722 314.898C894.08 314.898 895.936 315.409 897.29 316.432C898.644 317.445 899.539 318.804 899.975 320.509ZM918.012 327.952V315.182H922.273V337H918.097V333.222H917.87C917.368 334.386 916.563 335.357 915.455 336.134C914.356 336.901 912.988 337.284 911.35 337.284C909.948 337.284 908.708 336.976 907.628 336.361C906.558 335.736 905.715 334.812 905.1 333.591C904.494 332.369 904.191 330.859 904.191 329.06V315.182H908.438V328.548C908.438 330.035 908.85 331.219 909.674 332.099C910.498 332.98 911.568 333.42 912.884 333.42C913.679 333.42 914.47 333.222 915.256 332.824C916.052 332.426 916.71 331.825 917.231 331.02C917.761 330.215 918.021 329.192 918.012 327.952ZM927.1 337V315.182H931.205V318.648H931.432C931.83 317.473 932.531 316.55 933.534 315.878C934.548 315.196 935.694 314.855 936.972 314.855C937.237 314.855 937.55 314.865 937.909 314.884C938.279 314.902 938.568 314.926 938.776 314.955V319.017C938.605 318.97 938.302 318.918 937.867 318.861C937.431 318.795 936.996 318.761 936.56 318.761C935.556 318.761 934.661 318.974 933.875 319.401C933.099 319.817 932.483 320.4 932.029 321.148C931.574 321.886 931.347 322.729 931.347 323.676V337H927.1ZM947.725 337.483C946.343 337.483 945.093 337.227 943.975 336.716C942.858 336.195 941.973 335.442 941.319 334.457C940.675 333.473 940.353 332.265 940.353 330.835C940.353 329.604 940.59 328.591 941.064 327.795C941.537 327 942.176 326.37 942.981 325.906C943.786 325.442 944.686 325.092 945.68 324.855C946.674 324.618 947.688 324.438 948.72 324.315C950.027 324.164 951.087 324.041 951.902 323.946C952.716 323.842 953.308 323.676 953.677 323.449C954.047 323.222 954.231 322.852 954.231 322.341V322.241C954.231 321.001 953.881 320.04 953.18 319.358C952.489 318.676 951.457 318.335 950.083 318.335C948.654 318.335 947.527 318.652 946.703 319.287C945.888 319.912 945.325 320.608 945.012 321.375L941.021 320.466C941.494 319.14 942.186 318.07 943.095 317.256C944.013 316.432 945.069 315.835 946.262 315.466C947.456 315.087 948.71 314.898 950.027 314.898C950.898 314.898 951.821 315.002 952.797 315.21C953.781 315.409 954.7 315.778 955.552 316.318C956.414 316.858 957.119 317.63 957.669 318.634C958.218 319.628 958.493 320.92 958.493 322.511V337H954.345V334.017H954.174C953.9 334.566 953.488 335.106 952.939 335.636C952.389 336.167 951.684 336.607 950.822 336.957C949.96 337.308 948.928 337.483 947.725 337.483ZM948.649 334.074C949.823 334.074 950.827 333.842 951.66 333.378C952.503 332.914 953.142 332.308 953.578 331.56C954.023 330.802 954.245 329.992 954.245 329.131V326.318C954.094 326.47 953.8 326.612 953.365 326.744C952.939 326.867 952.451 326.976 951.902 327.071C951.352 327.156 950.817 327.237 950.297 327.312C949.776 327.379 949.34 327.436 948.99 327.483C948.166 327.587 947.413 327.762 946.731 328.009C946.059 328.255 945.519 328.61 945.112 329.074C944.714 329.528 944.515 330.134 944.515 330.892C944.515 331.943 944.904 332.739 945.68 333.278C946.457 333.809 947.446 334.074 948.649 334.074ZM967.517 324.045V337H963.269V315.182H967.346V318.733H967.616C968.118 317.578 968.904 316.65 969.974 315.949C971.054 315.248 972.412 314.898 974.051 314.898C975.537 314.898 976.84 315.21 977.957 315.835C979.074 316.451 979.941 317.369 980.556 318.591C981.172 319.812 981.48 321.323 981.48 323.122V337H977.233V323.634C977.233 322.052 976.821 320.816 975.997 319.926C975.173 319.027 974.041 318.577 972.602 318.577C971.617 318.577 970.741 318.79 969.974 319.216C969.216 319.642 968.615 320.267 968.17 321.091C967.734 321.905 967.517 322.89 967.517 324.045ZM995.486 337.44C993.374 337.44 991.556 336.962 990.032 336.006C988.516 335.04 987.352 333.709 986.537 332.014C985.723 330.319 985.316 328.378 985.316 326.19C985.316 323.974 985.732 322.019 986.566 320.324C987.399 318.619 988.573 317.289 990.088 316.332C991.603 315.376 993.389 314.898 995.443 314.898C997.101 314.898 998.578 315.205 999.875 315.821C1001.17 316.427 1002.22 317.279 1003.01 318.378C1003.82 319.476 1004.3 320.759 1004.45 322.227H1000.32C1000.09 321.205 999.568 320.324 998.753 319.585C997.948 318.847 996.869 318.477 995.514 318.477C994.331 318.477 993.294 318.79 992.404 319.415C991.523 320.03 990.836 320.911 990.344 322.057C989.852 323.193 989.605 324.538 989.605 326.091C989.605 327.682 989.847 329.055 990.33 330.21C990.813 331.366 991.495 332.26 992.375 332.895C993.265 333.529 994.312 333.847 995.514 333.847C996.319 333.847 997.049 333.7 997.702 333.406C998.365 333.103 998.919 332.672 999.364 332.114C999.818 331.555 1000.14 330.883 1000.32 330.097H1004.45C1004.3 331.508 1003.84 332.767 1003.07 333.875C1002.3 334.983 1001.28 335.854 999.989 336.489C998.71 337.123 997.21 337.44 995.486 337.44ZM1017.51 337.44C1015.36 337.44 1013.51 336.981 1011.96 336.062C1010.42 335.134 1009.22 333.832 1008.38 332.156C1007.55 330.471 1007.13 328.496 1007.13 326.233C1007.13 323.998 1007.55 322.028 1008.38 320.324C1009.22 318.619 1010.4 317.289 1011.9 316.332C1013.42 315.376 1015.19 314.898 1017.22 314.898C1018.45 314.898 1019.64 315.101 1020.8 315.509C1021.95 315.916 1022.99 316.555 1023.91 317.426C1024.83 318.297 1025.55 319.429 1026.08 320.821C1026.61 322.204 1026.88 323.884 1026.88 325.864V327.369H1009.53V324.188H1022.71C1022.71 323.07 1022.49 322.08 1022.03 321.219C1021.58 320.348 1020.94 319.661 1020.11 319.159C1019.3 318.657 1018.34 318.406 1017.24 318.406C1016.05 318.406 1015.01 318.7 1014.12 319.287C1013.24 319.865 1012.56 320.622 1012.07 321.56C1011.6 322.488 1011.36 323.496 1011.36 324.585V327.071C1011.36 328.529 1011.62 329.77 1012.13 330.793C1012.65 331.815 1013.38 332.597 1014.3 333.136C1015.23 333.667 1016.32 333.932 1017.56 333.932C1018.36 333.932 1019.1 333.818 1019.76 333.591C1020.42 333.354 1020.99 333.004 1021.48 332.54C1021.96 332.076 1022.33 331.503 1022.59 330.821L1026.61 331.545C1026.28 332.729 1025.71 333.766 1024.87 334.656C1024.05 335.537 1023.01 336.223 1021.76 336.716C1020.52 337.199 1019.11 337.44 1017.51 337.44Z" fill="black" fill-opacity="0.8"/>
</g>
<g filter="url(#filter4_ddd_22_1164)">
<rect width="416" height="240" transform="translate(64 272)" fill="#FFD966"/>
<path d="M87.196 337V307.909H97.8494C99.9138 307.909 101.623 308.25 102.977 308.932C104.331 309.604 105.345 310.518 106.017 311.673C106.689 312.819 107.026 314.112 107.026 315.551C107.026 316.763 106.803 317.786 106.358 318.619C105.913 319.443 105.316 320.106 104.568 320.608C103.83 321.1 103.015 321.46 102.125 321.688V321.972C103.091 322.019 104.033 322.331 104.952 322.909C105.88 323.477 106.647 324.287 107.253 325.338C107.859 326.389 108.162 327.668 108.162 329.173C108.162 330.66 107.812 331.995 107.111 333.179C106.42 334.353 105.349 335.286 103.901 335.977C102.452 336.659 100.6 337 98.3466 337H87.196ZM91.5852 333.236H97.9205C100.023 333.236 101.528 332.829 102.438 332.014C103.347 331.2 103.801 330.182 103.801 328.96C103.801 328.042 103.569 327.199 103.105 326.432C102.641 325.665 101.978 325.054 101.116 324.599C100.264 324.145 99.2509 323.918 98.0767 323.918H91.5852V333.236ZM91.5852 320.494H97.4659C98.4508 320.494 99.3362 320.305 100.122 319.926C100.918 319.547 101.547 319.017 102.011 318.335C102.485 317.644 102.722 316.83 102.722 315.892C102.722 314.689 102.3 313.681 101.457 312.866C100.615 312.052 99.322 311.645 97.5795 311.645H91.5852V320.494ZM112.147 337V315.182H116.394V337H112.147ZM114.292 311.815C113.553 311.815 112.919 311.569 112.388 311.077C111.868 310.575 111.607 309.978 111.607 309.287C111.607 308.586 111.868 307.99 112.388 307.497C112.919 306.995 113.553 306.744 114.292 306.744C115.031 306.744 115.66 306.995 116.181 307.497C116.711 307.99 116.977 308.586 116.977 309.287C116.977 309.978 116.711 310.575 116.181 311.077C115.66 311.569 115.031 311.815 114.292 311.815ZM125.475 307.909V337H121.228V307.909H125.475ZM134.556 307.909V337H130.309V307.909H134.556ZM139.39 337V315.182H143.637V337H139.39ZM141.535 311.815C140.796 311.815 140.162 311.569 139.631 311.077C139.11 310.575 138.85 309.978 138.85 309.287C138.85 308.586 139.11 307.99 139.631 307.497C140.162 306.995 140.796 306.744 141.535 306.744C142.273 306.744 142.903 306.995 143.424 307.497C143.954 307.99 144.219 308.586 144.219 309.287C144.219 309.978 143.954 310.575 143.424 311.077C142.903 311.569 142.273 311.815 141.535 311.815ZM152.718 324.045V337H148.471V315.182H152.547V318.733H152.817C153.319 317.578 154.105 316.65 155.175 315.949C156.255 315.248 157.614 314.898 159.252 314.898C160.739 314.898 162.041 315.21 163.158 315.835C164.276 316.451 165.142 317.369 165.758 318.591C166.373 319.812 166.681 321.323 166.681 323.122V337H162.434V323.634C162.434 322.052 162.022 320.816 161.198 319.926C160.374 319.027 159.243 318.577 157.803 318.577C156.818 318.577 155.942 318.79 155.175 319.216C154.418 319.642 153.816 320.267 153.371 321.091C152.936 321.905 152.718 322.89 152.718 324.045ZM180.645 345.636C178.912 345.636 177.42 345.409 176.17 344.955C174.93 344.5 173.916 343.899 173.131 343.151C172.345 342.402 171.757 341.583 171.369 340.693L175.02 339.188C175.275 339.604 175.616 340.045 176.042 340.509C176.478 340.982 177.065 341.384 177.804 341.716C178.552 342.047 179.513 342.213 180.687 342.213C182.297 342.213 183.628 341.82 184.679 341.034C185.73 340.258 186.256 339.017 186.256 337.312V333.023H185.986C185.73 333.487 185.361 334.003 184.878 334.571C184.404 335.139 183.751 335.632 182.917 336.048C182.084 336.465 181 336.673 179.665 336.673C177.941 336.673 176.388 336.271 175.006 335.466C173.632 334.652 172.543 333.454 171.738 331.872C170.943 330.281 170.545 328.326 170.545 326.006C170.545 323.686 170.938 321.697 171.724 320.04C172.52 318.383 173.609 317.114 174.991 316.233C176.374 315.343 177.941 314.898 179.693 314.898C181.047 314.898 182.141 315.125 182.974 315.58C183.808 316.025 184.456 316.545 184.92 317.142C185.394 317.739 185.758 318.264 186.014 318.719H186.327V315.182H190.488V337.483C190.488 339.358 190.053 340.897 189.182 342.099C188.31 343.302 187.131 344.192 185.645 344.77C184.167 345.348 182.501 345.636 180.645 345.636ZM180.602 333.151C181.824 333.151 182.856 332.866 183.699 332.298C184.551 331.721 185.195 330.897 185.631 329.827C186.076 328.747 186.298 327.455 186.298 325.949C186.298 324.481 186.08 323.188 185.645 322.071C185.209 320.954 184.57 320.082 183.727 319.457C182.884 318.823 181.843 318.506 180.602 318.506C179.324 318.506 178.258 318.837 177.406 319.5C176.554 320.153 175.91 321.044 175.474 322.17C175.048 323.297 174.835 324.557 174.835 325.949C174.835 327.379 175.053 328.634 175.488 329.713C175.924 330.793 176.568 331.635 177.42 332.241C178.282 332.848 179.343 333.151 180.602 333.151Z" fill="black" fill-opacity="0.8"/>
</g>
<g filter="url(#filter5_ddd_22_1164)">
<rect width="416" height="240" transform="translate(1256 624)" fill="#FFD966"/>
<path d="M1279.2 659.909H1284.52L1293.78 682.523H1294.12L1303.39 659.909H1308.71V689H1304.54V667.949H1304.27L1295.69 688.957H1292.22L1283.64 667.935H1283.37V689H1279.2V659.909ZM1320.22 689.483C1318.84 689.483 1317.59 689.227 1316.47 688.716C1315.36 688.195 1314.47 687.442 1313.82 686.457C1313.17 685.473 1312.85 684.265 1312.85 682.835C1312.85 681.604 1313.09 680.591 1313.56 679.795C1314.03 679 1314.67 678.37 1315.48 677.906C1316.28 677.442 1317.18 677.092 1318.18 676.855C1319.17 676.618 1320.19 676.438 1321.22 676.315C1322.52 676.164 1323.58 676.041 1324.4 675.946C1325.21 675.842 1325.81 675.676 1326.17 675.449C1326.54 675.222 1326.73 674.852 1326.73 674.341V674.241C1326.73 673.001 1326.38 672.04 1325.68 671.358C1324.99 670.676 1323.95 670.335 1322.58 670.335C1321.15 670.335 1320.02 670.652 1319.2 671.287C1318.39 671.912 1317.82 672.608 1317.51 673.375L1313.52 672.466C1313.99 671.14 1314.68 670.07 1315.59 669.256C1316.51 668.432 1317.57 667.835 1318.76 667.466C1319.95 667.087 1321.21 666.898 1322.52 666.898C1323.4 666.898 1324.32 667.002 1325.29 667.21C1326.28 667.409 1327.2 667.778 1328.05 668.318C1328.91 668.858 1329.62 669.63 1330.17 670.634C1330.72 671.628 1330.99 672.92 1330.99 674.511V689H1326.84V686.017H1326.67C1326.4 686.566 1325.99 687.106 1325.44 687.636C1324.89 688.167 1324.18 688.607 1323.32 688.957C1322.46 689.308 1321.43 689.483 1320.22 689.483ZM1321.15 686.074C1322.32 686.074 1323.32 685.842 1324.16 685.378C1325 684.914 1325.64 684.308 1326.08 683.56C1326.52 682.802 1326.74 681.992 1326.74 681.131V678.318C1326.59 678.47 1326.3 678.612 1325.86 678.744C1325.44 678.867 1324.95 678.976 1324.4 679.071C1323.85 679.156 1323.31 679.237 1322.79 679.312C1322.27 679.379 1321.84 679.436 1321.49 679.483C1320.66 679.587 1319.91 679.762 1319.23 680.009C1318.56 680.255 1318.02 680.61 1317.61 681.074C1317.21 681.528 1317.01 682.134 1317.01 682.892C1317.01 683.943 1317.4 684.739 1318.18 685.278C1318.95 685.809 1319.94 686.074 1321.15 686.074ZM1345.95 667.182V670.591H1334.03V667.182H1345.95ZM1337.23 661.955H1341.48V682.594C1341.48 683.418 1341.6 684.038 1341.85 684.455C1342.09 684.862 1342.41 685.141 1342.8 685.293C1343.2 685.435 1343.63 685.506 1344.09 685.506C1344.43 685.506 1344.73 685.482 1344.99 685.435C1345.24 685.387 1345.44 685.349 1345.58 685.321L1346.35 688.83C1346.1 688.924 1345.75 689.019 1345.3 689.114C1344.84 689.218 1344.28 689.275 1343.59 689.284C1342.48 689.303 1341.43 689.104 1340.47 688.688C1339.5 688.271 1338.72 687.627 1338.12 686.756C1337.53 685.884 1337.23 684.791 1337.23 683.474V661.955ZM1358.73 689.44C1356.61 689.44 1354.8 688.962 1353.27 688.006C1351.76 687.04 1350.59 685.709 1349.78 684.014C1348.96 682.319 1348.56 680.378 1348.56 678.19C1348.56 675.974 1348.97 674.019 1349.81 672.324C1350.64 670.619 1351.81 669.289 1353.33 668.332C1354.84 667.376 1356.63 666.898 1358.68 666.898C1360.34 666.898 1361.82 667.205 1363.11 667.821C1364.41 668.427 1365.46 669.279 1366.25 670.378C1367.06 671.476 1367.54 672.759 1367.69 674.227H1363.56C1363.33 673.205 1362.81 672.324 1361.99 671.585C1361.19 670.847 1360.11 670.477 1358.75 670.477C1357.57 670.477 1356.53 670.79 1355.64 671.415C1354.76 672.03 1354.08 672.911 1353.58 674.057C1353.09 675.193 1352.85 676.538 1352.85 678.091C1352.85 679.682 1353.09 681.055 1353.57 682.21C1354.05 683.366 1354.73 684.26 1355.61 684.895C1356.51 685.529 1357.55 685.847 1358.75 685.847C1359.56 685.847 1360.29 685.7 1360.94 685.406C1361.6 685.103 1362.16 684.672 1362.6 684.114C1363.06 683.555 1363.38 682.883 1363.56 682.097H1367.69C1367.54 683.508 1367.08 684.767 1366.31 685.875C1365.54 686.983 1364.52 687.854 1363.23 688.489C1361.95 689.123 1360.45 689.44 1358.73 689.44ZM1375.6 676.045V689H1371.35V659.909H1375.54V670.733H1375.81C1376.32 669.559 1377.1 668.626 1378.15 667.935C1379.21 667.243 1380.58 666.898 1382.27 666.898C1383.77 666.898 1385.08 667.205 1386.19 667.821C1387.32 668.437 1388.19 669.355 1388.81 670.577C1389.43 671.789 1389.75 673.304 1389.75 675.122V689H1385.5V675.634C1385.5 674.033 1385.09 672.793 1384.26 671.912C1383.44 671.022 1382.29 670.577 1380.83 670.577C1379.82 670.577 1378.92 670.79 1378.13 671.216C1377.34 671.642 1376.72 672.267 1376.27 673.091C1375.82 673.905 1375.6 674.89 1375.6 676.045ZM1394.53 689V667.182H1398.78V689H1394.53ZM1396.68 663.815C1395.94 663.815 1395.31 663.569 1394.77 663.077C1394.25 662.575 1393.99 661.978 1393.99 661.287C1393.99 660.586 1394.25 659.99 1394.77 659.497C1395.31 658.995 1395.94 658.744 1396.68 658.744C1397.42 658.744 1398.05 658.995 1398.57 659.497C1399.1 659.99 1399.36 660.586 1399.36 661.287C1399.36 661.978 1399.1 662.575 1398.57 663.077C1398.05 663.569 1397.42 663.815 1396.68 663.815ZM1407.86 676.045V689H1403.61V667.182H1407.69V670.733H1407.96C1408.46 669.578 1409.25 668.65 1410.32 667.949C1411.4 667.248 1412.76 666.898 1414.4 666.898C1415.88 666.898 1417.18 667.21 1418.3 667.835C1419.42 668.451 1420.29 669.369 1420.9 670.591C1421.52 671.812 1421.82 673.323 1421.82 675.122V689H1417.58V675.634C1417.58 674.052 1417.17 672.816 1416.34 671.926C1415.52 671.027 1414.39 670.577 1412.95 670.577C1411.96 670.577 1411.09 670.79 1410.32 671.216C1409.56 671.642 1408.96 672.267 1408.51 673.091C1408.08 673.905 1407.86 674.89 1407.86 676.045ZM1435.79 697.636C1434.06 697.636 1432.56 697.409 1431.31 696.955C1430.07 696.5 1429.06 695.899 1428.27 695.151C1427.49 694.402 1426.9 693.583 1426.51 692.693L1430.16 691.188C1430.42 691.604 1430.76 692.045 1431.19 692.509C1431.62 692.982 1432.21 693.384 1432.95 693.716C1433.7 694.047 1434.66 694.213 1435.83 694.213C1437.44 694.213 1438.77 693.82 1439.82 693.034C1440.87 692.258 1441.4 691.017 1441.4 689.312V685.023H1441.13C1440.87 685.487 1440.5 686.003 1440.02 686.571C1439.55 687.139 1438.89 687.632 1438.06 688.048C1437.23 688.465 1436.14 688.673 1434.81 688.673C1433.08 688.673 1431.53 688.271 1430.15 687.466C1428.78 686.652 1427.69 685.454 1426.88 683.872C1426.09 682.281 1425.69 680.326 1425.69 678.006C1425.69 675.686 1426.08 673.697 1426.87 672.04C1427.66 670.383 1428.75 669.114 1430.13 668.233C1431.52 667.343 1433.08 666.898 1434.84 666.898C1436.19 666.898 1437.28 667.125 1438.12 667.58C1438.95 668.025 1439.6 668.545 1440.06 669.142C1440.54 669.739 1440.9 670.264 1441.16 670.719H1441.47V667.182H1445.63V689.483C1445.63 691.358 1445.2 692.897 1444.33 694.099C1443.45 695.302 1442.27 696.192 1440.79 696.77C1439.31 697.348 1437.64 697.636 1435.79 697.636ZM1435.75 685.151C1436.97 685.151 1438 684.866 1438.84 684.298C1439.69 683.721 1440.34 682.897 1440.77 681.827C1441.22 680.747 1441.44 679.455 1441.44 677.949C1441.44 676.481 1441.22 675.188 1440.79 674.071C1440.35 672.954 1439.71 672.082 1438.87 671.457C1438.03 670.823 1436.99 670.506 1435.75 670.506C1434.47 670.506 1433.4 670.837 1432.55 671.5C1431.7 672.153 1431.05 673.044 1430.62 674.17C1430.19 675.297 1429.98 676.557 1429.98 677.949C1429.98 679.379 1430.2 680.634 1430.63 681.713C1431.07 682.793 1431.71 683.635 1432.56 684.241C1433.43 684.848 1434.49 685.151 1435.75 685.151Z" fill="black" fill-opacity="0.8"/>
</g>
<defs>
<filter id="filter0_ddd_22_1164" x="1246" y="270" width="436" height="260" filterUnits="userSpaceOnUse" color-interpolation-filters="sRGB">
<feFlood flood-opacity="0" result="BackgroundImageFix"/>
<feColorMatrix in="SourceAlpha" type="matrix" values="0 0 0 0 0 0 0 0 0 0 0 0 0 0 0 0 0 0 127 0" result="hardAlpha"/>
<feOffset dy="2.5"/>
<feGaussianBlur stdDeviation="1"/>
<feColorMatrix type="matrix" values="0 0 0 0 0 0 0 0 0 0 0 0 0 0 0 0 0 0 0.02 0"/>
<feBlend mode="normal" in2="BackgroundImageFix" result="effect1_dropShadow_22_1164"/>
<feColorMatrix in="SourceAlpha" type="matrix" values="0 0 0 0 0 0 0 0 0 0 0 0 0 0 0 0 0 0 127 0" result="hardAlpha"/>
<feOffset dy="3"/>
<feGaussianBlur stdDeviation="2.5"/>
<feColorMatrix type="matrix" values="0 0 0 0 0 0 0 0 0 0 0 0 0 0 0 0 0 0 0.04 0"/>
<feBlend mode="normal" in2="effect1_dropShadow_22_1164" result="effect2_dropShadow_22_1164"/>
<feColorMatrix in="SourceAlpha" type="matrix" values="0 0 0 0 0 0 0 0 0 0 0 0 0 0 0 0 0 0 127 0" result="hardAlpha"/>
<feOffset dy="8"/>
<feGaussianBlur stdDeviation="5"/>
<feColorMatrix type="matrix" values="0 0 0 0 0 0 0 0 0 0 0 0 0 0 0 0 0 0 0.08 0"/>
<feBlend mode="normal" in2="effect2_dropShadow_22_1164" result="effect3_dropShadow_22_1164"/>
<feBlend mode="normal" in="SourceGraphic" in2="effect3_dropShadow_22_1164" result="shape"/>
</filter>
<filter id="filter1_ddd_22_1164" x="670" y="622" width="436" height="260" filterUnits="userSpaceOnUse" color-interpolation-filters="sRGB">
<feFlood flood-opacity="0" result="BackgroundImageFix"/>
<feColorMatrix in="SourceAlpha" type="matrix" values="0 0 0 0 0 0 0 0 0 0 0 0 0 0 0 0 0 0 127 0" result="hardAlpha"/>
<feOffset dy="2.5"/>
<feGaussianBlur stdDeviation="1"/>
<feColorMatrix type="matrix" values="0 0 0 0 0 0 0 0 0 0 0 0 0 0 0 0 0 0 0.02 0"/>
<feBlend mode="normal" in2="BackgroundImageFix" result="effect1_dropShadow_22_1164"/>
<feColorMatrix in="SourceAlpha" type="matrix" values="0 0 0 0 0 0 0 0 0 0 0 0 0 0 0 0 0 0 127 0" result="hardAlpha"/>
<feOffset dy="3"/>
<feGaussianBlur stdDeviation="2.5"/>
<feColorMatrix type="matrix" values="0 0 0 0 0 0 0 0 0 0 0 0 0 0 0 0 0 0 0.04 0"/>
<feBlend mode="normal" in2="effect1_dropShadow_22_1164" result="effect2_dropShadow_22_1164"/>
<feColorMatrix in="SourceAlpha" type="matrix" values="0 0 0 0 0 0 0 0 0 0 0 0 0 0 0 0 0 0 127 0" result="hardAlpha"/>
<feOffset dy="8"/>
<feGaussianBlur stdDeviation="5"/>
<feColorMatrix type="matrix" values="0 0 0 0 0 0 0 0 0 0 0 0 0 0 0 0 0 0 0.08 0"/>
<feBlend mode="normal" in2="effect2_dropShadow_22_1164" result="effect3_dropShadow_22_1164"/>
<feBlend mode="normal" in="SourceGraphic" in2="effect3_dropShadow_22_1164" result="shape"/>
</filter>
<filter id="filter2_ddd_22_1164" x="54" y="622" width="436" height="260" filterUnits="userSpaceOnUse" color-interpolation-filters="sRGB">
<feFlood flood-opacity="0" result="BackgroundImageFix"/>
<feColorMatrix in="SourceAlpha" type="matrix" values="0 0 0 0 0 0 0 0 0 0 0 0 0 0 0 0 0 0 127 0" result="hardAlpha"/>
<feOffset dy="2.5"/>
<feGaussianBlur stdDeviation="1"/>
<feColorMatrix type="matrix" values="0 0 0 0 0 0 0 0 0 0 0 0 0 0 0 0 0 0 0.02 0"/>
<feBlend mode="normal" in2="BackgroundImageFix" result="effect1_dropShadow_22_1164"/>
<feColorMatrix in="SourceAlpha" type="matrix" values="0 0 0 0 0 0 0 0 0 0 0 0 0 0 0 0 0 0 127 0" result="hardAlpha"/>
<feOffset dy="3"/>
<feGaussianBlur stdDeviation="2.5"/>
<feColorMatrix type="matrix" values="0 0 0 0 0 0 0 0 0 0 0 0 0 0 0 0 0 0 0.04 0"/>
<feBlend mode="normal" in2="effect1_dropShadow_22_1164" result="effect2_dropShadow_22_1164"/>
<feColorMatrix in="SourceAlpha" type="matrix" values="0 0 0 0 0 0 0 0 0 0 0 0 0 0 0 0 0 0 127 0" result="hardAlpha"/>
<feOffset dy="8"/>
<feGaussianBlur stdDeviation="5"/>
<feColorMatrix type="matrix" values="0 0 0 0 0 0 0 0 0 0 0 0 0 0 0 0 0 0 0.08 0"/>
<feBlend mode="normal" in2="effect2_dropShadow_22_1164" result="effect3_dropShadow_22_1164"/>
<feBlend mode="normal" in="SourceGraphic" in2="effect3_dropShadow_22_1164" result="shape"/>
</filter>
<filter id="filter3_ddd_22_1164" x="670" y="270" width="436" height="260" filterUnits="userSpaceOnUse" color-interpolation-filters="sRGB">
<feFlood flood-opacity="0" result="BackgroundImageFix"/>
<feColorMatrix in="SourceAlpha" type="matrix" values="0 0 0 0 0 0 0 0 0 0 0 0 0 0 0 0 0 0 127 0" result="hardAlpha"/>
<feOffset dy="2.5"/>
<feGaussianBlur stdDeviation="1"/>
<feColorMatrix type="matrix" values="0 0 0 0 0 0 0 0 0 0 0 0 0 0 0 0 0 0 0.02 0"/>
<feBlend mode="normal" in2="BackgroundImageFix" result="effect1_dropShadow_22_1164"/>
<feColorMatrix in="SourceAlpha" type="matrix" values="0 0 0 0 0 0 0 0 0 0 0 0 0 0 0 0 0 0 127 0" result="hardAlpha"/>
<feOffset dy="3"/>
<feGaussianBlur stdDeviation="2.5"/>
<feColorMatrix type="matrix" values="0 0 0 0 0 0 0 0 0 0 0 0 0 0 0 0 0 0 0.04 0"/>
<feBlend mode="normal" in2="effect1_dropShadow_22_1164" result="effect2_dropShadow_22_1164"/>
<feColorMatrix in="SourceAlpha" type="matrix" values="0 0 0 0 0 0 0 0 0 0 0 0 0 0 0 0 0 0 127 0" result="hardAlpha"/>
<feOffset dy="8"/>
<feGaussianBlur stdDeviation="5"/>
<feColorMatrix type="matrix" values="0 0 0 0 0 0 0 0 0 0 0 0 0 0 0 0 0 0 0.08 0"/>
<feBlend mode="normal" in2="effect2_dropShadow_22_1164" result="effect3_dropShadow_22_1164"/>
<feBlend mode="normal" in="SourceGraphic" in2="effect3_dropShadow_22_1164" result="shape"/>
</filter>
<filter id="filter4_ddd_22_1164" x="54" y="270" width="436" height="260" filterUnits="userSpaceOnUse" color-interpolation-filters="sRGB">
<feFlood flood-opacity="0" result="BackgroundImageFix"/>
<feColorMatrix in="SourceAlpha" type="matrix" values="0 0 0 0 0 0 0 0 0 0 0 0 0 0 0 0 0 0 127 0" result="hardAlpha"/>
<feOffset dy="2.5"/>
<feGaussianBlur stdDeviation="1"/>
<feColorMatrix type="matrix" values="0 0 0 0 0 0 0 0 0 0 0 0 0 0 0 0 0 0 0.02 0"/>
<feBlend mode="normal" in2="BackgroundImageFix" result="effect1_dropShadow_22_1164"/>
<feColorMatrix in="SourceAlpha" type="matrix" values="0 0 0 0 0 0 0 0 0 0 0 0 0 0 0 0 0 0 127 0" result="hardAlpha"/>
<feOffset dy="3"/>
<feGaussianBlur stdDeviation="2.5"/>
<feColorMatrix type="matrix" values="0 0 0 0 0 0 0 0 0 0 0 0 0 0 0 0 0 0 0.04 0"/>
<feBlend mode="normal" in2="effect1_dropShadow_22_1164" result="effect2_dropShadow_22_1164"/>
<feColorMatrix in="SourceAlpha" type="matrix" values="0 0 0 0 0 0 0 0 0 0 0 0 0 0 0 0 0 0 127 0" result="hardAlpha"/>
<feOffset dy="8"/>
<feGaussianBlur stdDeviation="5"/>
<feColorMatrix type="matrix" values="0 0 0 0 0 0 0 0 0 0 0 0 0 0 0 0 0 0 0.08 0"/>
<feBlend mode="normal" in2="effect2_dropShadow_22_1164" result="effect3_dropShadow_22_1164"/>
<feBlend mode="normal" in="SourceGraphic" in2="effect3_dropShadow_22_1164" result="shape"/>
</filter>
<filter id="filter5_ddd_22_1164" x="1246" y="622" width="436" height="260" filterUnits="userSpaceOnUse" color-interpolation-filters="sRGB">
<feFlood flood-opacity="0" result="BackgroundImageFix"/>
<feColorMatrix in="SourceAlpha" type="matrix" values="0 0 0 0 0 0 0 0 0 0 0 0 0 0 0 0 0 0 127 0" result="hardAlpha"/>
<feOffset dy="2.5"/>
<feGaussianBlur stdDeviation="1"/>
<feColorMatrix type="matrix" values="0 0 0 0 0 0 0 0 0 0 0 0 0 0 0 0 0 0 0.02 0"/>
<feBlend mode="normal" in2="BackgroundImageFix" result="effect1_dropShadow_22_1164"/>
<feColorMatrix in="SourceAlpha" type="matrix" values="0 0 0 0 0 0 0 0 0 0 0 0 0 0 0 0 0 0 127 0" result="hardAlpha"/>
<feOffset dy="3"/>
<feGaussianBlur stdDeviation="2.5"/>
<feColorMatrix type="matrix" values="0 0 0 0 0 0 0 0 0 0 0 0 0 0 0 0 0 0 0.04 0"/>
<feBlend mode="normal" in2="effect1_dropShadow_22_1164" result="effect2_dropShadow_22_1164"/>
<feColorMatrix in="SourceAlpha" type="matrix" values="0 0 0 0 0 0 0 0 0 0 0 0 0 0 0 0 0 0 127 0" result="hardAlpha"/>
<feOffset dy="8"/>
<feGaussianBlur stdDeviation="5"/>
<feColorMatrix type="matrix" values="0 0 0 0 0 0 0 0 0 0 0 0 0 0 0 0 0 0 0.08 0"/>
<feBlend mode="normal" in2="effect2_dropShadow_22_1164" result="effect3_dropShadow_22_1164"/>
<feBlend mode="normal" in="SourceGraphic" in2="effect3_dropShadow_22_1164" result="shape"/>
</filter>
</defs>
</svg>
